<svg width="68" height="25" viewBox="0 0 68 25" fill="none" xmlns="http://www.w3.org/2000/svg">
<path d="M7.19303 14.8648C6.81526 14.8648 6.49837 14.7496 6.24237 14.5192C5.98726 14.2896 5.8597 14.0048 5.8597 13.6648C5.8597 13.3248 5.98726 13.0396 6.24237 12.8092C6.49837 12.5796 6.81526 12.4648 7.19303 12.4648C7.57081 12.4648 7.8877 12.5796 8.1437 12.8092C8.39881 13.0396 8.52637 13.3248 8.52637 13.6648C8.52637 14.0048 8.39881 14.2896 8.1437 14.5192C7.8877 14.7496 7.57081 14.8648 7.19303 14.8648ZM12.5264 14.8648C12.1486 14.8648 11.8321 14.7496 11.577 14.5192C11.321 14.2896 11.193 14.0048 11.193 13.6648C11.193 13.3248 11.321 13.0396 11.577 12.8092C11.8321 12.5796 12.1486 12.4648 12.5264 12.4648C12.9041 12.4648 13.221 12.5796 13.477 12.8092C13.7321 13.0396 13.8597 13.3248 13.8597 13.6648C13.8597 14.0048 13.7321 14.2896 13.477 14.5192C13.221 14.7496 12.9041 14.8648 12.5264 14.8648ZM17.8597 14.8648C17.4819 14.8648 17.1655 14.7496 16.9104 14.5192C16.6544 14.2896 16.5264 14.0048 16.5264 13.6648C16.5264 13.3248 16.6544 13.0396 16.9104 12.8092C17.1655 12.5796 17.4819 12.4648 17.8597 12.4648C18.2375 12.4648 18.5539 12.5796 18.809 12.8092C19.065 13.0396 19.193 13.3248 19.193 13.6648C19.193 14.0048 19.065 14.2896 18.809 14.5192C18.5539 14.7496 18.2375 14.8648 17.8597 14.8648ZM0.526367 24.4648V2.86484H4.52637V0.464844H7.19303V2.86484H17.8597V0.464844H20.5264V2.86484H24.5264V24.4648H0.526367ZM3.19303 22.0648H21.8597V10.0648H3.19303V22.0648ZM3.19303 7.66484H21.8597V5.26484H3.19303V7.66484Z" fill="black" fill-opacity="0.6"/>
<path d="M38.116 9.242C39.18 9.242 40.0993 9.44267 40.874 9.844C41.658 10.236 42.2553 10.8007 42.666 11.538C43.086 12.2753 43.296 13.1433 43.296 14.142C43.296 15.1407 43.086 16.0087 42.666 16.746C42.2553 17.474 41.658 18.034 40.874 18.426C40.0993 18.8087 39.18 19 38.116 19H35.078V9.242H38.116ZM38.116 17.95C39.376 17.95 40.3373 17.6187 41 16.956C41.6627 16.284 41.994 15.346 41.994 14.142C41.994 12.9287 41.658 11.9813 40.986 11.3C40.3233 10.6187 39.3667 10.278 38.116 10.278H36.352V17.95H38.116ZM44.5004 15.136C44.5004 14.352 44.6591 13.666 44.9764 13.078C45.2938 12.4807 45.7278 12.0187 46.2784 11.692C46.8384 11.3653 47.4591 11.202 48.1404 11.202C48.8124 11.202 49.3958 11.3467 49.8904 11.636C50.3851 11.9253 50.7538 12.2893 50.9964 12.728V11.328H52.2844V19H50.9964V17.572C50.7444 18.02 50.3664 18.3933 49.8624 18.692C49.3678 18.9813 48.7891 19.126 48.1264 19.126C47.4451 19.126 46.8291 18.958 46.2784 18.622C45.7278 18.286 45.2938 17.8147 44.9764 17.208C44.6591 16.6013 44.5004 15.9107 44.5004 15.136ZM50.9964 15.15C50.9964 14.5713 50.8798 14.0673 50.6464 13.638C50.4131 13.2087 50.0958 12.882 49.6944 12.658C49.3024 12.4247 48.8684 12.308 48.3924 12.308C47.9164 12.308 47.4824 12.42 47.0904 12.644C46.6984 12.868 46.3858 13.1947 46.1524 13.624C45.9191 14.0533 45.8024 14.5573 45.8024 15.136C45.8024 15.724 45.9191 16.2373 46.1524 16.676C46.3858 17.1053 46.6984 17.4367 47.0904 17.67C47.4824 17.894 47.9164 18.006 48.3924 18.006C48.8684 18.006 49.3024 17.894 49.6944 17.67C50.0958 17.4367 50.4131 17.1053 50.6464 16.676C50.8798 16.2373 50.9964 15.7287 50.9964 15.15ZM55.9914 12.378V16.9C55.9914 17.2733 56.0707 17.5393 56.2294 17.698C56.388 17.8473 56.6634 17.922 57.0554 17.922H57.9934V19H56.8454C56.136 19 55.604 18.8367 55.2494 18.51C54.8947 18.1833 54.7174 17.6467 54.7174 16.9V12.378H53.7234V11.328H54.7174V9.396H55.9914V11.328H57.9934V12.378H55.9914ZM66.537 14.87C66.537 15.1127 66.523 15.3693 66.495 15.64H60.363C60.4097 16.396 60.6663 16.9887 61.133 17.418C61.609 17.838 62.183 18.048 62.855 18.048C63.4057 18.048 63.863 17.922 64.227 17.67C64.6003 17.4087 64.8617 17.0633 65.011 16.634H66.383C66.1777 17.3713 65.767 17.9733 65.151 18.44C64.535 18.8973 63.7697 19.126 62.855 19.126C62.127 19.126 61.4737 18.9627 60.895 18.636C60.3257 18.3093 59.8777 17.8473 59.551 17.25C59.2243 16.6433 59.061 15.9433 59.061 15.15C59.061 14.3567 59.2197 13.6613 59.537 13.064C59.8543 12.4667 60.2977 12.0093 60.867 11.692C61.4457 11.3653 62.1083 11.202 62.855 11.202C63.583 11.202 64.227 11.3607 64.787 11.678C65.347 11.9953 65.7763 12.434 66.075 12.994C66.383 13.5447 66.537 14.17 66.537 14.87ZM65.221 14.604C65.221 14.1187 65.1137 13.7033 64.899 13.358C64.6843 13.0033 64.3903 12.7373 64.017 12.56C63.653 12.3733 63.247 12.28 62.799 12.28C62.155 12.28 61.6043 12.4853 61.147 12.896C60.699 13.3067 60.4423 13.876 60.377 14.604H65.221Z" fill="#8A8A8A"/>
</svg>
