<svg width="71" height="25" viewBox="0 0 71 25" fill="none" xmlns="http://www.w3.org/2000/svg">
<path d="M41.594 8.742V9.778H37.352V13.068H40.796V14.104H37.352V18.5H36.078V8.742H41.594ZM44.4067 12.074C44.6307 11.6353 44.948 11.2947 45.3587 11.052C45.7787 10.8093 46.2874 10.688 46.8847 10.688V12.004H46.5487C45.1207 12.004 44.4067 12.7787 44.4067 14.328V18.5H43.1327V10.828H44.4067V12.074ZM51.7013 18.626C50.9827 18.626 50.3293 18.4627 49.7413 18.136C49.1627 17.8093 48.7053 17.3473 48.3693 16.75C48.0427 16.1433 47.8793 15.4433 47.8793 14.65C47.8793 13.866 48.0473 13.1753 48.3833 12.578C48.7287 11.9713 49.1953 11.5093 49.7833 11.192C50.3713 10.8653 51.0293 10.702 51.7573 10.702C52.4853 10.702 53.1433 10.8653 53.7313 11.192C54.3193 11.5093 54.7813 11.9667 55.1173 12.564C55.4627 13.1613 55.6353 13.8567 55.6353 14.65C55.6353 15.4433 55.458 16.1433 55.1033 16.75C54.758 17.3473 54.2867 17.8093 53.6893 18.136C53.092 18.4627 52.4293 18.626 51.7013 18.626ZM51.7013 17.506C52.1587 17.506 52.588 17.3987 52.9893 17.184C53.3907 16.9693 53.7127 16.6473 53.9553 16.218C54.2073 15.7887 54.3333 15.266 54.3333 14.65C54.3333 14.034 54.212 13.5113 53.9693 13.082C53.7267 12.6527 53.4093 12.3353 53.0173 12.13C52.6253 11.9153 52.2007 11.808 51.7433 11.808C51.2767 11.808 50.8473 11.9153 50.4553 12.13C50.0727 12.3353 49.7647 12.6527 49.5313 13.082C49.298 13.5113 49.1813 14.034 49.1813 14.65C49.1813 15.2753 49.2933 15.8027 49.5173 16.232C49.7507 16.6613 50.0587 16.9833 50.4413 17.198C50.824 17.4033 51.244 17.506 51.7013 17.506ZM66.5364 10.688C67.1338 10.688 67.6658 10.814 68.1324 11.066C68.5991 11.3087 68.9678 11.6773 69.2384 12.172C69.5091 12.6667 69.6444 13.2687 69.6444 13.978V18.5H68.3844V14.16C68.3844 13.3947 68.1931 12.8113 67.8104 12.41C67.4371 11.9993 66.9284 11.794 66.2844 11.794C65.6218 11.794 65.0944 12.0087 64.7024 12.438C64.3104 12.858 64.1144 13.4693 64.1144 14.272V18.5H62.8544V14.16C62.8544 13.3947 62.6631 12.8113 62.2804 12.41C61.9071 11.9993 61.3984 11.794 60.7544 11.794C60.0918 11.794 59.5644 12.0087 59.1724 12.438C58.7804 12.858 58.5844 13.4693 58.5844 14.272V18.5H57.3104V10.828H58.5844V11.934C58.8364 11.5327 59.1724 11.2247 59.5924 11.01C60.0218 10.7953 60.4931 10.688 61.0064 10.688C61.6504 10.688 62.2198 10.8327 62.7144 11.122C63.2091 11.4113 63.5778 11.836 63.8204 12.396C64.0351 11.8547 64.3898 11.4347 64.8844 11.136C65.3791 10.8373 65.9298 10.688 66.5364 10.688Z" fill="#8A8A8A"/>
<path d="M5 21.5004V19.5004H23V21.5004H5ZM6.85 16.5004L4 11.6504L5.55 11.3504L7.3 12.9004L12.1 11.6004L8.05 4.75039L10 4.15039L16.85 10.3004L21.85 8.95039C22.3833 8.80039 22.8667 8.90039 23.3 9.25039C23.7333 9.60039 23.95 10.0671 23.95 10.6504C23.95 11.0171 23.8377 11.3421 23.613 11.6254C23.3877 11.9087 23.1 12.1004 22.75 12.2004L6.85 16.5004Z" fill="#8A8A8A"/>
</svg>
