<svg width="394" height="113" viewBox="0 0 394 113" fill="none" xmlns="http://www.w3.org/2000/svg">
<path d="M54.7796 9.84551V22.9808H36.8096V77.1521H20.2887V22.9808H2.31873V9.84551H54.7796ZM71.3797 18.091C68.4813 18.091 66.0982 17.2601 64.2303 15.5982C62.4269 13.8724 61.5252 11.7631 61.5252 9.27024C61.5252 6.71348 62.4269 4.60415 64.2303 2.94226C66.0982 1.21645 68.4813 0.353546 71.3797 0.353546C74.2137 0.353546 76.5326 1.21645 78.3358 2.94226C80.2039 4.60415 81.1376 6.71348 81.1376 9.27024C81.1376 11.7631 80.2039 13.8724 78.3358 15.5982C76.5326 17.2601 74.2137 18.091 71.3797 18.091ZM79.5918 23.652V77.1521H63.071V23.652H79.5918ZM124.509 77.1521L108.085 54.7166V77.1521H91.5642V6.20213H108.085V45.4164L124.413 23.652H144.798L122.384 50.4979L144.991 77.1521H124.509ZM202.105 49.5391C202.105 51.0732 202.009 52.6711 201.816 54.3331H164.426C164.684 57.6568 165.746 60.2136 167.615 62.0033C169.547 63.7291 171.898 64.592 174.667 64.592C178.789 64.592 181.656 62.8662 183.266 59.4146H200.849C199.947 62.9301 198.305 66.0941 195.922 68.9066C193.603 71.719 190.673 73.9242 187.13 75.5222C183.588 77.1199 179.627 77.9191 175.247 77.9191C169.966 77.9191 165.263 76.8008 161.141 74.5634C157.02 72.3262 153.799 69.1303 151.48 64.9755C149.161 60.8208 148.002 55.963 148.002 50.402C148.002 44.8411 149.129 39.9833 151.384 35.8285C153.702 31.6738 156.923 28.4779 161.045 26.2407C165.167 24.0035 169.901 22.885 175.247 22.885C180.464 22.885 185.102 23.9716 189.159 26.1448C193.217 28.318 196.373 31.4181 198.627 35.445C200.946 39.4719 202.105 44.1699 202.105 49.5391ZM185.198 45.2246C185.198 42.4122 184.232 40.175 182.3 38.5131C180.367 36.8512 177.952 36.0203 175.054 36.0203C172.284 36.0203 169.933 36.8193 168.001 38.4172C166.133 40.0152 164.974 42.2844 164.523 45.2246H185.198ZM240.868 63.2497V77.1521H232.462C226.472 77.1521 221.802 75.7139 218.453 72.8376C215.104 69.8973 213.43 65.1353 213.43 58.5517V37.2667H206.86V23.652H213.43V10.6125H229.95V23.652H240.771V37.2667H229.95V58.7435C229.95 60.3414 230.337 61.4919 231.11 62.1951C231.883 62.8982 233.171 63.2497 234.974 63.2497H240.868ZM295.092 31.1305C293.868 28.8933 292.097 27.1995 289.778 26.0489C287.523 24.8345 284.851 24.2273 281.759 24.2273C276.413 24.2273 272.13 25.985 268.91 29.5006C265.689 32.9522 264.079 37.5863 264.079 43.4029C264.079 49.603 265.754 54.4609 269.103 57.9764C272.517 61.428 277.186 63.1539 283.112 63.1539C287.169 63.1539 290.583 62.1312 293.353 60.0858C296.187 58.0403 298.247 55.1001 299.536 51.2649H278.571V39.1843H314.511V54.4289C313.287 58.5197 311.194 62.3229 308.231 65.8385C305.333 69.354 301.629 72.1984 297.121 74.3716C292.612 76.5446 287.523 77.6315 281.856 77.6315C275.157 77.6315 269.167 76.1933 263.886 73.317C258.669 70.3767 254.578 66.3178 251.616 61.1404C248.717 55.963 247.268 50.0505 247.268 43.4029C247.268 36.7553 248.717 30.8429 251.616 25.6654C254.578 20.4241 258.669 16.3652 263.886 13.4889C269.103 10.5486 275.06 9.07848 281.759 9.07848C289.875 9.07848 296.702 11.028 302.241 14.9271C307.845 18.8261 311.548 24.2273 313.352 31.1305H295.092Z" fill="#782EC2"/>
<path d="M355.737 77.8232C349.361 77.8232 343.5 76.3529 338.154 73.4128C332.873 70.4726 328.653 66.3817 325.498 61.1404C322.406 55.8351 320.86 49.8907 320.86 43.307C320.86 36.7234 322.406 30.8109 325.498 25.5695C328.653 20.3282 332.873 16.2374 338.154 13.2971C343.5 10.3569 349.361 8.88672 355.737 8.88672C362.114 8.88672 367.943 10.3569 373.224 13.2971C378.571 16.2374 382.757 20.3282 385.784 25.5695C388.876 30.8109 390.422 36.7234 390.422 43.307C390.422 49.8907 388.876 55.8351 385.784 61.1404C382.693 66.3817 378.506 70.4726 373.224 73.4128C367.943 76.3529 362.114 77.8232 355.737 77.8232ZM355.737 62.8662C361.148 62.8662 365.463 61.0765 368.684 57.497C371.968 53.9175 373.611 49.1876 373.611 43.307C373.611 37.3626 371.968 32.6326 368.684 29.117C365.463 25.5376 361.148 23.7479 355.737 23.7479C350.263 23.7479 345.883 25.5057 342.598 29.0212C339.377 32.5367 337.767 37.2987 337.767 43.307C337.767 49.2515 339.377 54.0134 342.598 57.5929C345.883 61.1084 350.263 62.8662 355.737 62.8662Z" fill="#DEC9FF"/>
<path d="M35.3725 94.6199L29.7931 102.584L28.9779 107.114H26.9128L27.7279 102.584L24.9564 94.6199H27.257L29.0685 100.714L33.0537 94.6199H35.3725ZM39.1488 107.276C38.3035 107.276 37.5608 107.102 36.9208 106.755C36.2807 106.407 35.7795 105.916 35.4172 105.28C35.067 104.645 34.8919 103.92 34.8919 103.105C34.8919 101.991 35.1515 100.972 35.6708 100.049C36.2022 99.1262 36.9268 98.3951 37.8446 97.8558C38.7745 97.3165 39.8071 97.0468 40.9423 97.0468C41.7876 97.0468 42.5364 97.2266 43.1885 97.5862C43.8407 97.9337 44.3479 98.4251 44.7102 99.0603C45.0846 99.6835 45.2717 100.409 45.2717 101.236C45.2717 102.35 45 103.369 44.4566 104.292C43.9131 105.214 43.1764 105.946 42.2465 106.485C41.3166 107.012 40.2841 107.276 39.1488 107.276ZM39.4025 105.55C40.0909 105.55 40.7189 105.358 41.2865 104.975C41.8661 104.579 42.319 104.064 42.6451 103.429C42.9711 102.782 43.1342 102.092 43.1342 101.361C43.1342 100.534 42.8987 99.8992 42.4277 99.4558C41.9567 99.0004 41.365 98.7727 40.6524 98.7727C39.952 98.7727 39.324 98.9704 38.7685 99.3659C38.225 99.7494 37.7963 100.271 37.4823 100.93C37.1804 101.577 37.0294 102.272 37.0294 103.015C37.0294 103.818 37.2468 104.441 37.6816 104.885C38.1284 105.328 38.7021 105.55 39.4025 105.55ZM57.1314 97.2086L55.3743 107.114H53.3092L53.5085 105.946C53.1099 106.353 52.6269 106.677 52.0593 106.916C51.5037 107.144 50.9301 107.258 50.3383 107.258C49.2877 107.258 48.4483 106.976 47.8204 106.413C47.1924 105.85 46.8784 105.053 46.8784 104.022C46.8784 103.746 46.9086 103.417 46.969 103.033L48.0015 97.2086H50.0485L49.0703 102.728C49.022 103.063 48.9978 103.303 48.9978 103.447C48.9978 104.106 49.179 104.609 49.5413 104.957C49.9157 105.304 50.4289 105.478 51.0811 105.478C51.8419 105.478 52.488 105.256 53.0193 104.813C53.5507 104.358 53.9009 103.704 54.07 102.853L55.0663 97.2086H57.1314ZM61.6134 98.9524C62.024 98.3532 62.507 97.8858 63.0626 97.5502C63.6302 97.2146 64.2582 97.0468 64.9465 97.0468L64.5661 99.1682H64.0408C63.2437 99.1682 62.6037 99.3659 62.1206 99.7614C61.6375 100.157 61.2994 100.84 61.1062 101.811L60.1642 107.114H58.0991L59.8562 97.2086H61.9213L61.6134 98.9524ZM80.844 98.3412C80.7353 98.9764 80.4756 99.5756 80.065 100.139C79.6665 100.702 79.1049 101.164 78.3803 101.523C77.6557 101.871 76.7742 102.045 75.7356 102.045H73.4532L72.5474 107.114H70.4823L72.7104 94.6199H77.058C78.326 94.6199 79.2861 94.9016 79.9382 95.4649C80.5904 96.0162 80.9164 96.7412 80.9164 97.6401C80.9164 97.7959 80.8923 98.0296 80.844 98.3412ZM76.0254 100.445C76.8104 100.445 77.4263 100.259 77.8731 99.8872C78.332 99.5157 78.6158 99.0004 78.7245 98.3412C78.7608 98.1614 78.7789 97.9877 78.7789 97.8199C78.7789 97.3165 78.6098 96.927 78.2717 96.6513C77.9456 96.3637 77.4444 96.2199 76.7681 96.2199H74.4857L73.743 100.445H76.0254ZM81.4554 102.116C81.6365 101.122 81.9988 100.241 82.5423 99.4738C83.0978 98.7067 83.7741 98.1135 84.5711 97.694C85.3682 97.2626 86.2015 97.0468 87.071 97.0468C87.856 97.0468 88.5141 97.2027 89.0455 97.5143C89.5769 97.8139 89.9754 98.1914 90.2411 98.6468L90.4947 97.2086H92.5779L90.8208 107.114H88.7376L89.0093 105.64C88.5745 106.107 88.025 106.497 87.3608 106.808C86.7087 107.12 85.9962 107.276 85.2233 107.276C84.4745 107.276 83.8043 107.108 83.2125 106.773C82.6328 106.437 82.1739 105.964 81.8358 105.352C81.5097 104.729 81.3467 104.016 81.3467 103.213C81.3467 102.853 81.3829 102.488 81.4554 102.116ZM89.6252 102.152C89.6735 101.925 89.6977 101.679 89.6977 101.415C89.6977 100.612 89.4561 99.9831 88.9731 99.5277C88.5021 99.0603 87.9103 98.8266 87.1978 98.8266C86.6664 98.8266 86.1471 98.9584 85.6399 99.2221C85.1327 99.4738 84.6919 99.8513 84.3175 100.355C83.9431 100.846 83.6956 101.433 83.5748 102.116C83.5265 102.344 83.5023 102.59 83.5023 102.853C83.5023 103.668 83.7378 104.316 84.2088 104.795C84.6919 105.262 85.2897 105.496 86.0022 105.496C86.5336 105.496 87.0529 105.364 87.5601 105.101C88.0673 104.837 88.5081 104.453 88.8825 103.95C89.2569 103.435 89.5044 102.836 89.6252 102.152ZM97.2101 107.276C96.5217 107.276 95.8937 107.162 95.3261 106.934C94.7585 106.695 94.3117 106.365 93.9856 105.946C93.6595 105.514 93.4965 105.023 93.4965 104.471C93.4965 104.376 93.5086 104.244 93.5327 104.076H95.5435C95.4952 104.531 95.6341 104.909 95.9601 105.208C96.2862 105.508 96.7451 105.658 97.3369 105.658C97.9166 105.658 98.3936 105.556 98.768 105.352C99.1423 105.149 99.3295 104.849 99.3295 104.453C99.3295 104.118 99.1725 103.848 98.8585 103.644C98.5566 103.441 98.0675 103.213 97.3912 102.961C96.7512 102.71 96.2319 102.476 95.8333 102.26C95.4348 102.045 95.0906 101.751 94.8008 101.379C94.5109 100.996 94.366 100.522 94.366 99.9592C94.366 99.3839 94.5291 98.8805 94.8551 98.4491C95.1933 98.0056 95.6582 97.6641 96.25 97.4244C96.8538 97.1727 97.5422 97.0468 98.3151 97.0468C99.0155 97.0468 99.6375 97.1667 100.181 97.4064C100.736 97.6341 101.165 97.9637 101.467 98.3951C101.781 98.8146 101.938 99.3 101.938 99.8513C101.938 100.019 101.932 100.145 101.92 100.229H99.9635C100.012 99.7614 99.873 99.3839 99.5469 99.0963C99.2329 98.8086 98.78 98.6648 98.1883 98.6648C97.669 98.6648 97.2463 98.7727 96.9202 98.9884C96.6062 99.2041 96.4492 99.4977 96.4492 99.8693C96.4492 100.241 96.6123 100.54 96.9384 100.768C97.2644 100.984 97.7656 101.224 98.4419 101.487C99.0578 101.727 99.559 101.955 99.9454 102.17C100.332 102.386 100.664 102.674 100.942 103.033C101.22 103.393 101.358 103.842 101.358 104.382C101.358 104.969 101.177 105.484 100.815 105.928C100.465 106.359 99.9756 106.695 99.3476 106.934C98.7197 107.162 98.0071 107.276 97.2101 107.276ZM106.887 107.276C106.199 107.276 105.571 107.162 105.003 106.934C104.436 106.695 103.989 106.365 103.663 105.946C103.337 105.514 103.174 105.023 103.174 104.471C103.174 104.376 103.186 104.244 103.21 104.076H105.221C105.172 104.531 105.311 104.909 105.637 105.208C105.963 105.508 106.422 105.658 107.014 105.658C107.594 105.658 108.071 105.556 108.445 105.352C108.819 105.149 109.007 104.849 109.007 104.453C109.007 104.118 108.85 103.848 108.536 103.644C108.234 103.441 107.745 103.213 107.068 102.961C106.428 102.71 105.909 102.476 105.51 102.26C105.112 102.045 104.768 101.751 104.478 101.379C104.188 100.996 104.043 100.522 104.043 99.9592C104.043 99.3839 104.206 98.8805 104.532 98.4491C104.87 98.0056 105.335 97.6641 105.927 97.4244C106.531 97.1727 107.219 97.0468 107.992 97.0468C108.693 97.0468 109.315 97.1667 109.858 97.4064C110.414 97.6341 110.842 97.9637 111.144 98.3951C111.458 98.8146 111.615 99.3 111.615 99.8513C111.615 100.019 111.609 100.145 111.597 100.229H109.641C109.689 99.7614 109.55 99.3839 109.224 99.0963C108.91 98.8086 108.457 98.6648 107.865 98.6648C107.346 98.6648 106.923 98.7727 106.597 98.9884C106.283 99.2041 106.126 99.4977 106.126 99.8693C106.126 100.241 106.289 100.54 106.616 100.768C106.942 100.984 107.443 101.224 108.118 101.487C108.735 101.727 109.236 101.955 109.623 102.17C110.009 102.386 110.341 102.674 110.619 103.033C110.897 103.393 111.036 103.842 111.036 104.382C111.036 104.969 110.854 105.484 110.492 105.928C110.142 106.359 109.653 106.695 109.025 106.934C108.397 107.162 107.684 107.276 106.887 107.276ZM121.215 104.364C121.191 104.531 121.179 104.639 121.179 104.687C121.179 104.939 121.258 105.125 121.415 105.244C121.572 105.352 121.831 105.406 122.194 105.406H123.462L123.154 107.114H121.523C120.726 107.114 120.116 106.958 119.694 106.647C119.271 106.323 119.06 105.814 119.06 105.119C119.06 104.855 119.084 104.603 119.132 104.364L120.11 98.8805H118.933L119.223 97.2086H120.418L120.853 94.7458H122.936L122.502 97.2086H124.911L124.621 98.8805H122.194L121.215 104.364ZM129.423 107.276C128.578 107.276 127.835 107.102 127.195 106.755C126.555 106.407 126.054 105.916 125.691 105.28C125.341 104.645 125.166 103.92 125.166 103.105C125.166 101.991 125.426 100.972 125.945 100.049C126.476 99.1262 127.201 98.3951 128.119 97.8558C129.049 97.3165 130.081 97.0468 131.216 97.0468C132.062 97.0468 132.81 97.2266 133.463 97.5862C134.115 97.9337 134.622 98.4251 134.984 99.0603C135.359 99.6835 135.546 100.409 135.546 101.236C135.546 102.35 135.274 103.369 134.731 104.292C134.187 105.214 133.451 105.946 132.521 106.485C131.591 107.012 130.558 107.276 129.423 107.276ZM129.677 105.55C130.365 105.55 130.993 105.358 131.561 104.975C132.14 104.579 132.593 104.064 132.919 103.429C133.245 102.782 133.408 102.092 133.408 101.361C133.408 100.534 133.173 99.8992 132.702 99.4558C132.231 99.0004 131.639 98.7727 130.927 98.7727C130.226 98.7727 129.598 98.9704 129.043 99.3659C128.499 99.7494 128.07 100.271 127.756 100.93C127.454 101.577 127.304 102.272 127.304 103.015C127.304 103.818 127.521 104.441 127.956 104.885C128.402 105.328 128.976 105.55 129.677 105.55ZM146.043 96.2019L145.373 99.9951H149.721L149.449 101.577H145.101L144.395 105.514H149.286L148.996 107.114H142.04L144.268 94.6019H151.224L150.934 96.2019H146.043ZM156.721 102.08L159.039 107.114H156.703L155.145 103.752L152.518 107.114H150.362L154.456 102.242L152.119 97.2086H154.456L156.014 100.57L158.641 97.2086H160.797L156.721 102.08ZM163.478 104.364C163.453 104.531 163.441 104.639 163.441 104.687C163.441 104.939 163.52 105.125 163.677 105.244C163.834 105.352 164.093 105.406 164.456 105.406H165.724L165.416 107.114H163.786C162.988 107.114 162.379 106.958 161.956 106.647C161.533 106.323 161.322 105.814 161.322 105.119C161.322 104.855 161.346 104.603 161.394 104.364L162.373 98.8805H161.195L161.485 97.2086H162.681L163.115 94.7458H165.198L164.764 97.2086H167.173L166.883 98.8805H164.456L163.478 104.364ZM170.834 98.9524C171.244 98.3532 171.727 97.8858 172.283 97.5502C172.851 97.2146 173.479 97.0468 174.167 97.0468L173.786 99.1682H173.261C172.464 99.1682 171.824 99.3659 171.341 99.7614C170.858 100.157 170.52 100.84 170.327 101.811L169.385 107.114H167.319L169.077 97.2086H171.142L170.834 98.9524ZM174.471 102.116C174.652 101.122 175.015 100.241 175.558 99.4738C176.113 98.7067 176.79 98.1135 177.587 97.694C178.384 97.2626 179.217 97.0468 180.087 97.0468C180.872 97.0468 181.53 97.2027 182.061 97.5143C182.593 97.8139 182.991 98.1914 183.257 98.6468L183.51 97.2086H185.594L183.836 107.114H181.753L182.025 105.64C181.59 106.107 181.041 106.497 180.377 106.808C179.724 107.12 179.012 107.276 178.239 107.276C177.49 107.276 176.82 107.108 176.228 106.773C175.649 106.437 175.19 105.964 174.851 105.352C174.525 104.729 174.362 104.016 174.362 103.213C174.362 102.853 174.399 102.488 174.471 102.116ZM182.641 102.152C182.689 101.925 182.713 101.679 182.713 101.415C182.713 100.612 182.472 99.9831 181.989 99.5277C181.518 99.0603 180.926 98.8266 180.214 98.8266C179.682 98.8266 179.163 98.9584 178.656 99.2221C178.148 99.4738 177.708 99.8513 177.333 100.355C176.959 100.846 176.711 101.433 176.591 102.116C176.542 102.344 176.518 102.59 176.518 102.853C176.518 103.668 176.754 104.316 177.225 104.795C177.708 105.262 178.305 105.496 179.018 105.496C179.549 105.496 180.069 105.364 180.576 105.101C181.083 104.837 181.524 104.453 181.898 103.95C182.273 103.435 182.52 102.836 182.641 102.152ZM190.915 107.276C190.07 107.276 189.327 107.102 188.687 106.755C188.047 106.407 187.546 105.916 187.183 105.28C186.833 104.645 186.658 103.92 186.658 103.105C186.658 101.991 186.918 100.972 187.437 100.049C187.968 99.1262 188.693 98.3951 189.611 97.8558C190.541 97.3165 191.573 97.0468 192.708 97.0468C193.554 97.0468 194.302 97.2266 194.955 97.5862C195.607 97.9337 196.114 98.4251 196.476 99.0603C196.851 99.6835 197.038 100.409 197.038 101.236C197.038 102.35 196.766 103.369 196.223 104.292C195.679 105.214 194.942 105.946 194.013 106.485C193.083 107.012 192.05 107.276 190.915 107.276ZM191.169 105.55C191.857 105.55 192.485 105.358 193.052 104.975C193.632 104.579 194.085 104.064 194.411 103.429C194.737 102.782 194.9 102.092 194.9 101.361C194.9 100.534 194.665 99.8992 194.194 99.4558C193.723 99.0004 193.131 98.7727 192.418 98.7727C191.718 98.7727 191.09 98.9704 190.535 99.3659C189.991 99.7494 189.562 100.271 189.248 100.93C188.946 101.577 188.795 102.272 188.795 103.015C188.795 103.818 189.013 104.441 189.448 104.885C189.894 105.328 190.468 105.55 191.169 105.55ZM201.615 98.9524C202.025 98.3532 202.508 97.8858 203.064 97.5502C203.632 97.2146 204.26 97.0468 204.948 97.0468L204.568 99.1682H204.042C203.245 99.1682 202.605 99.3659 202.122 99.7614C201.639 100.157 201.301 100.84 201.108 101.811L200.166 107.114H198.101L199.858 97.2086H201.923L201.615 98.9524ZM205.252 102.116C205.433 101.122 205.796 100.241 206.339 99.4738C206.895 98.7067 207.571 98.1135 208.368 97.694C209.165 97.2626 210.004 97.0468 210.886 97.0468C211.538 97.0468 212.154 97.1907 212.734 97.4783C213.313 97.754 213.754 98.1255 214.056 98.5929L214.907 93.811H216.991L214.618 107.114H212.534L212.806 105.622C212.371 106.113 211.828 106.515 211.176 106.826C210.536 107.126 209.829 107.276 209.056 107.276C208.295 107.276 207.619 107.108 207.027 106.773C206.436 106.437 205.971 105.964 205.633 105.352C205.306 104.729 205.143 104.016 205.143 103.213C205.143 102.853 205.18 102.488 205.252 102.116ZM213.422 102.152C213.47 101.925 213.494 101.679 213.494 101.415C213.494 100.612 213.253 99.9831 212.77 99.5277C212.299 99.0603 211.707 98.8266 210.995 98.8266C210.463 98.8266 209.944 98.9584 209.437 99.2221C208.929 99.4738 208.489 99.8513 208.114 100.355C207.74 100.846 207.492 101.433 207.372 102.116C207.323 102.344 207.299 102.59 207.299 102.853C207.299 103.668 207.535 104.316 208.006 104.795C208.489 105.262 209.086 105.496 209.799 105.496C210.33 105.496 210.85 105.364 211.357 105.101C211.864 104.837 212.305 104.453 212.679 103.95C213.054 103.435 213.301 102.836 213.422 102.152ZM220.374 95.8963C220.048 95.8963 219.782 95.7944 219.577 95.5907C219.371 95.387 219.269 95.1293 219.269 94.8177C219.269 94.3982 219.426 94.0387 219.74 93.739C220.066 93.4274 220.434 93.2716 220.845 93.2716C221.171 93.2716 221.43 93.3735 221.623 93.5773C221.829 93.781 221.931 94.0387 221.931 94.3503C221.931 94.7697 221.774 95.1353 221.46 95.4469C221.146 95.7465 220.784 95.8963 220.374 95.8963ZM221.153 97.2086L219.395 107.114H217.33L219.087 97.2086H221.153ZM228.936 97.0468C229.987 97.0468 230.82 97.3285 231.436 97.8918C232.064 98.4431 232.378 99.2401 232.378 100.283C232.378 100.546 232.348 100.876 232.287 101.271L231.237 107.114H229.19L230.186 101.577C230.234 101.242 230.258 101.002 230.258 100.858C230.258 100.199 230.071 99.6955 229.697 99.3479C229.334 99.0004 228.827 98.8266 228.175 98.8266C227.39 98.8266 226.726 99.0663 226.182 99.5457C225.651 100.013 225.313 100.69 225.168 101.577V101.523L224.172 107.114H222.107L223.864 97.2086H225.929L225.73 98.3592C226.14 97.9517 226.623 97.6341 227.179 97.4064C227.746 97.1667 228.332 97.0468 228.936 97.0468ZM234.07 102.116C234.251 101.122 234.613 100.241 235.157 99.4738C235.712 98.7067 236.389 98.1135 237.186 97.694C237.983 97.2626 238.816 97.0468 239.686 97.0468C240.471 97.0468 241.129 97.2027 241.66 97.5143C242.192 97.8139 242.59 98.1914 242.856 98.6468L243.109 97.2086H245.193L243.435 107.114H241.352L241.624 105.64C241.189 106.107 240.64 106.497 239.975 106.808C239.323 107.12 238.611 107.276 237.838 107.276C237.089 107.276 236.419 107.108 235.827 106.773C235.247 106.437 234.789 105.964 234.45 105.352C234.124 104.729 233.961 104.016 233.961 103.213C233.961 102.853 233.998 102.488 234.07 102.116ZM242.24 102.152C242.288 101.925 242.312 101.679 242.312 101.415C242.312 100.612 242.071 99.9831 241.588 99.5277C241.117 99.0603 240.525 98.8266 239.812 98.8266C239.281 98.8266 238.762 98.9584 238.255 99.2221C237.747 99.4738 237.307 99.8513 236.932 100.355C236.558 100.846 236.31 101.433 236.189 102.116C236.141 102.344 236.117 102.59 236.117 102.853C236.117 103.668 236.352 104.316 236.823 104.795C237.307 105.262 237.904 105.496 238.617 105.496C239.148 105.496 239.667 105.364 240.175 105.101C240.682 104.837 241.123 104.453 241.497 103.95C241.871 103.435 242.119 102.836 242.24 102.152ZM249.662 98.9524C250.073 98.3532 250.556 97.8858 251.112 97.5502C251.679 97.2146 252.307 97.0468 252.996 97.0468L252.615 99.1682H252.09C251.293 99.1682 250.653 99.3659 250.17 99.7614C249.687 100.157 249.348 100.84 249.155 101.811L248.213 107.114H246.148L247.905 97.2086H249.97L249.662 98.9524ZM255.98 97.2086L257.447 104.759L261.704 97.2086H263.842L255.147 111.77H253.009L255.889 106.952L253.679 97.2086H255.98ZM273.078 96.2019L272.408 99.9951H276.756L276.484 101.577H272.136L271.43 105.514H276.321L276.031 107.114H269.075L271.303 94.6019H278.259L277.969 96.2019H273.078ZM283.755 102.08L286.073 107.114H283.737L282.179 103.752L279.552 107.114H277.396L281.49 102.242L279.154 97.2086H281.49L283.048 100.57L285.675 97.2086H287.831L283.755 102.08ZM291.183 98.6648C291.617 98.2094 292.161 97.8259 292.813 97.5143C293.477 97.2027 294.19 97.0468 294.951 97.0468C295.711 97.0468 296.388 97.2086 296.979 97.5322C297.571 97.8558 298.03 98.3172 298.356 98.9165C298.682 99.5157 298.845 100.217 298.845 101.02C298.845 101.367 298.809 101.733 298.737 102.116C298.555 103.111 298.187 104.004 297.632 104.795C297.088 105.574 296.418 106.185 295.621 106.629C294.836 107.06 294.009 107.276 293.139 107.276C292.378 107.276 291.726 107.126 291.183 106.826C290.651 106.515 290.235 106.131 289.933 105.676L288.846 111.824H286.781L289.371 97.2086H291.436L291.183 98.6648ZM296.635 102.116C296.684 101.889 296.708 101.643 296.708 101.379C296.708 100.576 296.466 99.9532 295.983 99.5097C295.512 99.0543 294.914 98.8266 294.19 98.8266C293.67 98.8266 293.151 98.9584 292.632 99.2221C292.125 99.4858 291.684 99.8693 291.309 100.373C290.935 100.876 290.687 101.469 290.567 102.152C290.518 102.38 290.494 102.626 290.494 102.889C290.494 103.692 290.73 104.328 291.201 104.795C291.684 105.262 292.282 105.496 292.994 105.496C293.525 105.496 294.045 105.364 294.552 105.101C295.071 104.825 295.518 104.429 295.892 103.914C296.267 103.399 296.514 102.8 296.635 102.116ZM305.978 97.0468C307.222 97.0468 308.212 97.3944 308.949 98.0895C309.698 98.7846 310.072 99.7195 310.072 100.894C310.072 101.17 310.042 101.499 309.981 101.883C309.933 102.146 309.849 102.47 309.728 102.853H302.101C302.089 102.937 302.083 103.063 302.083 103.231C302.083 103.938 302.301 104.501 302.735 104.921C303.182 105.34 303.762 105.55 304.474 105.55C305.598 105.55 306.461 105.089 307.065 104.166H309.293C308.834 105.077 308.158 105.826 307.264 106.413C306.37 106.988 305.338 107.276 304.167 107.276C303.333 107.276 302.603 107.114 301.975 106.79C301.347 106.467 300.858 106.005 300.507 105.406C300.157 104.795 299.982 104.082 299.982 103.267C299.982 102.919 300.018 102.548 300.091 102.152C300.272 101.134 300.64 100.241 301.196 99.4738C301.751 98.6948 302.44 98.0955 303.261 97.676C304.094 97.2566 305 97.0468 305.978 97.0468ZM307.916 101.379C307.94 101.164 307.953 101.008 307.953 100.912C307.953 100.253 307.729 99.7314 307.282 99.3479C306.848 98.9644 306.28 98.7727 305.579 98.7727C304.843 98.7727 304.179 99.0064 303.587 99.4738C302.995 99.9412 302.59 100.576 302.373 101.379H307.916ZM314.586 98.9524C314.996 98.3532 315.479 97.8858 316.035 97.5502C316.602 97.2146 317.23 97.0468 317.919 97.0468L317.538 99.1682H317.013C316.216 99.1682 315.576 99.3659 315.093 99.7614C314.61 100.157 314.272 100.84 314.078 101.811L313.136 107.114H311.071L312.828 97.2086H314.894L314.586 98.9524ZM321.067 95.8963C320.741 95.8963 320.475 95.7944 320.27 95.5907C320.065 95.387 319.962 95.1293 319.962 94.8177C319.962 94.3982 320.119 94.0387 320.433 93.739C320.759 93.4274 321.127 93.2716 321.538 93.2716C321.864 93.2716 322.124 93.3735 322.317 93.5773C322.522 93.781 322.625 94.0387 322.625 94.3503C322.625 94.7697 322.468 95.1353 322.154 95.4469C321.84 95.7465 321.478 95.8963 321.067 95.8963ZM321.846 97.2086L320.089 107.114H318.024L319.781 97.2086H321.846ZM328.887 97.0468C330.13 97.0468 331.121 97.3944 331.857 98.0895C332.606 98.7846 332.981 99.7195 332.981 100.894C332.981 101.17 332.95 101.499 332.89 101.883C332.842 102.146 332.757 102.47 332.636 102.853H325.01C324.998 102.937 324.992 103.063 324.992 103.231C324.992 103.938 325.209 104.501 325.644 104.921C326.091 105.34 326.671 105.55 327.383 105.55C328.506 105.55 329.37 105.089 329.974 104.166H332.202C331.743 105.077 331.066 105.826 330.173 106.413C329.279 106.988 328.247 107.276 327.075 107.276C326.242 107.276 325.511 107.114 324.883 106.79C324.255 106.467 323.766 106.005 323.416 105.406C323.066 104.795 322.891 104.082 322.891 103.267C322.891 102.919 322.927 102.548 322.999 102.152C323.18 101.134 323.549 100.241 324.104 99.4738C324.66 98.6948 325.348 98.0955 326.169 97.676C327.003 97.2566 327.908 97.0468 328.887 97.0468ZM330.825 101.379C330.849 101.164 330.861 101.008 330.861 100.912C330.861 100.253 330.638 99.7314 330.191 99.3479C329.756 98.9644 329.189 98.7727 328.488 98.7727C327.751 98.7727 327.087 99.0064 326.495 99.4738C325.904 99.9412 325.499 100.576 325.282 101.379H330.825ZM340.81 97.0468C341.861 97.0468 342.694 97.3285 343.31 97.8918C343.938 98.4431 344.252 99.2401 344.252 100.283C344.252 100.546 344.222 100.876 344.161 101.271L343.111 107.114H341.064L342.06 101.577C342.108 101.242 342.132 101.002 342.132 100.858C342.132 100.199 341.945 99.6955 341.571 99.3479C341.209 99.0004 340.701 98.8266 340.049 98.8266C339.264 98.8266 338.6 99.0663 338.057 99.5457C337.525 100.013 337.187 100.69 337.042 101.577V101.523L336.046 107.114H333.981L335.738 97.2086H337.803L337.604 98.3592C338.014 97.9517 338.497 97.6341 339.053 97.4064C339.62 97.1667 340.206 97.0468 340.81 97.0468ZM345.944 102.152C346.125 101.134 346.488 100.241 347.031 99.4738C347.587 98.6948 348.269 98.0955 349.078 97.676C349.899 97.2566 350.787 97.0468 351.741 97.0468C352.949 97.0468 353.897 97.3345 354.585 97.9098C355.273 98.473 355.666 99.282 355.762 100.337H353.534C353.438 99.8453 353.214 99.4618 352.864 99.1861C352.514 98.9105 352.037 98.7727 351.433 98.7727C350.588 98.7727 349.863 99.0723 349.259 99.6715C348.655 100.259 348.257 101.086 348.064 102.152C348.003 102.536 347.973 102.847 347.973 103.087C347.973 103.878 348.172 104.489 348.571 104.921C348.969 105.34 349.525 105.55 350.237 105.55C351.433 105.55 352.315 105.029 352.882 103.986H355.11C354.639 104.993 353.951 105.796 353.045 106.395C352.151 106.982 351.113 107.276 349.929 107.276C348.673 107.276 347.677 106.922 346.94 106.215C346.204 105.496 345.835 104.525 345.835 103.303C345.835 102.931 345.872 102.548 345.944 102.152ZM362.693 97.0468C363.937 97.0468 364.927 97.3944 365.664 98.0895C366.412 98.7846 366.787 99.7195 366.787 100.894C366.787 101.17 366.757 101.499 366.696 101.883C366.648 102.146 366.563 102.47 366.443 102.853H358.816C358.804 102.937 358.798 103.063 358.798 103.231C358.798 103.938 359.016 104.501 359.45 104.921C359.897 105.34 360.477 105.55 361.189 105.55C362.312 105.55 363.176 105.089 363.78 104.166H366.008C365.549 105.077 364.873 105.826 363.979 106.413C363.085 106.988 362.053 107.276 360.881 107.276C360.048 107.276 359.317 107.114 358.689 106.79C358.061 106.467 357.572 106.005 357.222 105.406C356.872 104.795 356.697 104.082 356.697 103.267C356.697 102.919 356.733 102.548 356.806 102.152C356.987 101.134 357.355 100.241 357.911 99.4738C358.466 98.6948 359.154 98.0955 359.976 97.676C360.809 97.2566 361.715 97.0468 362.693 97.0468ZM364.631 101.379C364.655 101.164 364.667 101.008 364.667 100.912C364.667 100.253 364.444 99.7314 363.997 99.3479C363.562 98.9644 362.995 98.7727 362.294 98.7727C361.558 98.7727 360.893 99.0064 360.302 99.4738C359.71 99.9412 359.305 100.576 359.088 101.379H364.631ZM371.464 107.276C370.776 107.276 370.148 107.162 369.58 106.934C369.013 106.695 368.566 106.365 368.24 105.946C367.914 105.514 367.751 105.023 367.751 104.471C367.751 104.376 367.763 104.244 367.787 104.076H369.798C369.749 104.531 369.888 104.909 370.214 105.208C370.54 105.508 370.999 105.658 371.591 105.658C372.171 105.658 372.648 105.556 373.022 105.352C373.397 105.149 373.584 104.849 373.584 104.453C373.584 104.118 373.427 103.848 373.113 103.644C372.811 103.441 372.322 103.213 371.645 102.961C371.005 102.71 370.486 102.476 370.088 102.26C369.689 102.045 369.345 101.751 369.055 101.379C368.765 100.996 368.62 100.522 368.62 99.9592C368.62 99.3839 368.783 98.8805 369.109 98.4491C369.447 98.0056 369.912 97.6641 370.504 97.4244C371.108 97.1727 371.796 97.0468 372.569 97.0468C373.27 97.0468 373.892 97.1667 374.435 97.4064C374.991 97.6341 375.419 97.9637 375.721 98.3951C376.035 98.8146 376.192 99.3 376.192 99.8513C376.192 100.019 376.186 100.145 376.174 100.229H374.218C374.266 99.7614 374.127 99.3839 373.801 99.0963C373.487 98.8086 373.034 98.6648 372.442 98.6648C371.923 98.6648 371.501 98.7727 371.174 98.9884C370.86 99.2041 370.703 99.4977 370.703 99.8693C370.703 100.241 370.866 100.54 371.193 100.768C371.519 100.984 372.02 101.224 372.696 101.487C373.312 101.727 373.813 101.955 374.2 102.17C374.586 102.386 374.918 102.674 375.196 103.033C375.474 103.393 375.613 103.842 375.613 104.382C375.613 104.969 375.431 105.484 375.069 105.928C374.719 106.359 374.23 106.695 373.602 106.934C372.974 107.162 372.261 107.276 371.464 107.276ZM382.282 94.6199L380.489 103.339H378.768L380.09 94.6199H382.282ZM379.003 107.24C378.677 107.24 378.411 107.138 378.206 106.934C378.001 106.731 377.898 106.473 377.898 106.161C377.898 105.742 378.055 105.382 378.369 105.083C378.695 104.771 379.064 104.615 379.474 104.615C379.8 104.615 380.06 104.717 380.253 104.921C380.458 105.125 380.561 105.382 380.561 105.694C380.561 106.113 380.404 106.479 380.09 106.79C379.776 107.09 379.414 107.24 379.003 107.24Z" fill="#782EC2"/>
<path d="M356.261 8.98859C336.66 8.98859 320.785 24.743 320.785 44.1939C320.785 63.6449 336.66 79.3992 356.261 79.3992C375.861 79.3992 391.736 63.6449 391.736 44.1939C391.736 24.743 375.861 8.98859 356.261 8.98859ZM356.261 17.7899C359.188 17.7899 361.937 18.582 364.597 19.4622C362.735 21.2224 360.607 22.8067 360.961 24.3909C361.316 25.9752 367.08 25.5351 367.08 28.7916C367.08 31.1679 363.356 31.8721 365.928 34.6005C369.032 37.6809 360.251 43.2258 360.074 47.2744C359.808 54.5795 367.524 55.8117 373.643 55.8117C377.368 55.8117 378.344 57.5719 378.078 59.6843C373.289 66.4613 365.129 70.6859 356.172 70.6859C352.802 70.6859 349.698 69.8938 346.771 68.7496C348.722 64.877 344.288 57.2199 340.119 54.7555C338.08 52.7312 333.734 53.5233 331.251 52.5552C330.452 50.1788 329.654 47.8025 329.566 45.1621C329.832 44.722 330.275 44.3699 330.984 44.3699C332.67 44.3699 334.975 47.7145 336.217 47.3624C337.813 47.0103 329.654 35.8327 333.467 33.6323C335.241 32.5762 338.789 37.0648 337.636 32.2241C336.572 27.7354 340.829 29.7597 343.489 28.6156C345.795 27.6474 347.481 25.007 344.643 23.4228C344.111 23.1587 343.49 22.5426 342.692 21.7505C346.682 19.3742 351.294 17.8779 356.261 17.8779V17.7899ZM376.747 27.3834C378.343 29.3197 379.586 31.432 380.649 33.7203V33.9844C380.295 34.6005 379.674 34.9525 378.699 35.9207C376.216 38.385 375.861 34.0724 374.797 33.1923C373.643 32.1361 369.475 33.3683 368.942 32.0481C368.322 30.4638 373.377 28.3515 376.747 27.3834Z" fill="#782EC2"/>
</svg>
