<svg width="51" height="25" viewBox="0 0 51 25" fill="none" xmlns="http://www.w3.org/2000/svg">
<path d="M41.084 8.742V9.778H38.424V18.5H37.15V9.778H34.476V8.742H41.084ZM45.9982 18.626C45.2796 18.626 44.6262 18.4627 44.0382 18.136C43.4596 17.8093 43.0022 17.3473 42.6662 16.75C42.3396 16.1433 42.1762 15.4433 42.1762 14.65C42.1762 13.866 42.3442 13.1753 42.6802 12.578C43.0256 11.9713 43.4922 11.5093 44.0802 11.192C44.6682 10.8653 45.3262 10.702 46.0542 10.702C46.7822 10.702 47.4402 10.8653 48.0282 11.192C48.6162 11.5093 49.0782 11.9667 49.4142 12.564C49.7596 13.1613 49.9322 13.8567 49.9322 14.65C49.9322 15.4433 49.7549 16.1433 49.4002 16.75C49.0549 17.3473 48.5836 17.8093 47.9862 18.136C47.3889 18.4627 46.7262 18.626 45.9982 18.626ZM45.9982 17.506C46.4556 17.506 46.8849 17.3987 47.2862 17.184C47.6876 16.9693 48.0096 16.6473 48.2522 16.218C48.5042 15.7887 48.6302 15.266 48.6302 14.65C48.6302 14.034 48.5089 13.5113 48.2662 13.082C48.0236 12.6527 47.7062 12.3353 47.3142 12.13C46.9222 11.9153 46.4976 11.808 46.0402 11.808C45.5736 11.808 45.1442 11.9153 44.7522 12.13C44.3696 12.3353 44.0616 12.6527 43.8282 13.082C43.5949 13.5113 43.4782 14.034 43.4782 14.65C43.4782 15.2753 43.5902 15.8027 43.8142 16.232C44.0476 16.6613 44.3556 16.9833 44.7382 17.198C45.1209 17.4033 45.5409 17.506 45.9982 17.506Z" fill="#8A8A8A"/>
<path d="M5 21.5004V19.5004H23V21.5004H5ZM6.85 16.5004L4 11.6504L5.55 11.3504L7.3 12.9004L12.1 11.6004L8.05 4.75039L10 4.15039L16.85 10.3004L21.85 8.95039C22.3833 8.80039 22.8667 8.90039 23.3 9.25039C23.7333 9.60039 23.95 10.0671 23.95 10.6504C23.95 11.0171 23.8377 11.3421 23.613 11.6254C23.3877 11.9087 23.1 12.1004 22.75 12.2004L6.85 16.5004Z" fill="#8A8A8A"/>
</svg>
