<svg width="51" height="24" viewBox="0 0 51 24" fill="none" xmlns="http://www.w3.org/2000/svg">
<path d="M15 20H8C7.45 20 6.979 19.804 6.587 19.412C6.195 19.02 5.99934 18.5493 6 18V7H8V18H15V20ZM11.5 6C10.95 6 10.479 5.804 10.087 5.412C9.695 5.02 9.49934 4.54934 9.5 4C9.5 3.45 9.696 2.979 10.088 2.587C10.48 2.195 10.9507 1.99934 11.5 2C12.05 2 12.521 2.196 12.913 2.588C13.305 2.98 13.5007 3.45067 13.5 4C13.5 4.55 13.304 5.021 12.912 5.413C12.52 5.805 12.0493 6.00067 11.5 6ZM16 22V17H11C10.45 17 9.979 16.804 9.587 16.412C9.195 16.02 8.99934 15.5493 9 15V9.5C9 8.8 9.24167 8.20834 9.725 7.725C10.2083 7.24167 10.8 7 11.5 7C12.2 7 12.7917 7.24167 13.275 7.725C13.7583 8.20834 14 8.8 14 9.5V14H16C16.55 14 17.021 14.196 17.413 14.588C17.805 14.98 18.0007 15.4507 18 16V22H16Z" fill="black" fill-opacity="0.6"/>
<path d="M41.084 7.242V8.278H38.424V17H37.15V8.278H34.476V7.242H41.084ZM45.9982 17.126C45.2796 17.126 44.6262 16.9627 44.0382 16.636C43.4596 16.3093 43.0022 15.8473 42.6662 15.25C42.3396 14.6433 42.1762 13.9433 42.1762 13.15C42.1762 12.366 42.3442 11.6753 42.6802 11.078C43.0256 10.4713 43.4922 10.0093 44.0802 9.692C44.6682 9.36533 45.3262 9.202 46.0542 9.202C46.7822 9.202 47.4402 9.36533 48.0282 9.692C48.6162 10.0093 49.0782 10.4667 49.4142 11.064C49.7596 11.6613 49.9322 12.3567 49.9322 13.15C49.9322 13.9433 49.7549 14.6433 49.4002 15.25C49.0549 15.8473 48.5836 16.3093 47.9862 16.636C47.3889 16.9627 46.7262 17.126 45.9982 17.126ZM45.9982 16.006C46.4556 16.006 46.8849 15.8987 47.2862 15.684C47.6876 15.4693 48.0096 15.1473 48.2522 14.718C48.5042 14.2887 48.6302 13.766 48.6302 13.15C48.6302 12.534 48.5089 12.0113 48.2662 11.582C48.0236 11.1527 47.7062 10.8353 47.3142 10.63C46.9222 10.4153 46.4976 10.308 46.0402 10.308C45.5736 10.308 45.1442 10.4153 44.7522 10.63C44.3696 10.8353 44.0616 11.1527 43.8282 11.582C43.5949 12.0113 43.4782 12.534 43.4782 13.15C43.4782 13.7753 43.5902 14.3027 43.8142 14.732C44.0476 15.1613 44.3556 15.4833 44.7382 15.698C45.1209 15.9033 45.5409 16.006 45.9982 16.006Z" fill="#8A8A8A"/>
</svg>
