<svg width="238" height="100" viewBox="0 0 238 100" fill="none" xmlns="http://www.w3.org/2000/svg">
<path d="M225.622 29.3633H12.3864C5.97329 29.3633 0.774414 34.5622 0.774414 40.9753V87.2531C0.774414 93.6662 5.97329 98.8651 12.3864 98.8651H225.622C232.035 98.8651 237.234 93.6662 237.234 87.2531V40.9753C237.234 34.5622 232.035 29.3633 225.622 29.3633Z" fill="white"/>
<path d="M225.614 29.363C228.694 29.363 231.647 30.5864 233.825 32.7641C236.002 34.9418 237.226 37.8953 237.226 40.975V87.2528C237.226 90.3325 236.002 93.2861 233.825 95.4637C231.647 97.6414 228.694 98.8648 225.614 98.8648H12.3862C9.30646 98.8648 6.35289 97.6414 4.17522 95.4637C1.99754 93.2861 0.774135 90.3325 0.774135 87.2528V40.975C0.774135 37.8953 1.99754 34.9418 4.17522 32.7641C6.35289 30.5864 9.30646 29.363 12.3862 29.363H225.614ZM225.614 28.5889H12.3862C9.10114 28.5889 5.95068 29.8938 3.62782 32.2167C1.30497 34.5395 0 37.69 0 40.975V87.2528C0 90.5378 1.30497 93.6883 3.62782 96.0111C5.95068 98.334 9.10114 99.639 12.3862 99.639H225.614C228.899 99.639 232.049 98.334 234.372 96.0111C236.695 93.6883 238 90.5378 238 87.2528V40.975C238 37.69 236.695 34.5395 234.372 32.2167C232.049 29.8938 228.899 28.5889 225.614 28.5889Z" fill="#231F20"/>
<path d="M176.635 29.3633V98.8651H12.3864C9.30674 98.8651 6.35317 97.6417 4.1755 95.464C1.99782 93.2863 0.774414 90.3328 0.774414 87.2531V40.9753C0.774414 37.8956 1.99782 34.942 4.1755 32.7644C6.35317 30.5867 9.30674 29.3633 12.3864 29.3633H176.635Z" fill="#7126B5"/>
<path d="M141.706 93.1746C141.706 93.1746 140.042 96.2711 140.344 96.9136C140.646 97.5562 144.052 98.7793 143.936 99.1199C143.82 99.4605 136.411 99.2748 136.148 98.8954C135.885 98.5161 135.993 98.3613 135.955 97.4478C135.916 96.5343 138.672 92.2998 138.672 92.2998" fill="#231F20"/>
<path d="M141.35 99.6703C139.12 99.6703 136.132 99.5464 135.83 99.1129C135.619 98.811 135.528 98.4411 135.575 98.0755C135.575 97.9207 135.575 97.7272 135.575 97.464C135.536 96.5041 137.688 93.1056 138.354 92.0915C138.381 92.048 138.416 92.0104 138.457 91.9809C138.499 91.9514 138.546 91.9306 138.596 91.9198C138.646 91.9089 138.698 91.9083 138.748 91.9178C138.798 91.9274 138.846 91.947 138.888 91.9754C138.974 92.0309 139.035 92.1183 139.056 92.2184C139.078 92.3186 139.059 92.4232 139.004 92.5095C137.711 94.499 136.333 96.9453 136.349 97.433V98.0833C136.349 98.4007 136.349 98.4858 136.418 98.602C138.582 98.8754 140.765 98.9712 142.944 98.8884L142.325 98.5865C141.009 97.9517 140.196 97.5337 140.003 97.0382C139.662 96.2641 140.854 93.9417 141.381 92.9585C141.405 92.9138 141.438 92.8743 141.478 92.8423C141.517 92.8103 141.563 92.7865 141.612 92.7721C141.661 92.7577 141.712 92.7531 141.763 92.7585C141.813 92.7639 141.862 92.7793 141.907 92.8037C141.952 92.8281 141.991 92.8611 142.023 92.9007C142.055 92.9404 142.079 92.9859 142.093 93.0348C142.108 93.0837 142.112 93.1349 142.107 93.1856C142.102 93.2363 142.086 93.2854 142.062 93.3301C141.234 94.8784 140.614 96.4266 140.715 96.7286C141.314 97.1914 141.973 97.5715 142.673 97.8588C143.951 98.4781 144.477 98.7336 144.315 99.2135C144.222 99.4922 143.904 99.5387 143.719 99.5696C143.533 99.6006 142.488 99.6703 141.35 99.6703Z" fill="#231F20"/>
<path d="M138.198 64.3851L124.922 60.5996L113.534 77.5687C113.534 77.5687 97.5869 87.8105 97.5869 88.2827C97.5869 88.9407 100.312 93.4462 100.312 93.4462C100.312 93.4462 110.376 89.4516 118.62 85.7048C125.185 82.7399 131.904 72.9316 131.904 72.9316L144.546 78.7453L136.805 93.1752L142.742 93.6939C142.742 93.6939 151.258 82.0819 154.083 75.7262C156.909 69.3706 138.198 64.3851 138.198 64.3851Z" fill="#231F20"/>
<path d="M142.704 94.0803L136.759 93.5617C136.696 93.556 136.635 93.5346 136.582 93.4995C136.529 93.4643 136.486 93.4165 136.457 93.3604C136.426 93.3046 136.41 93.242 136.41 93.1785C136.41 93.1149 136.426 93.0523 136.457 92.9965L144.074 78.9383L132.068 73.4574C130.914 75.0908 124.868 83.3663 118.807 86.1067C110.686 89.7684 100.583 93.7707 100.483 93.8094C100.399 93.8447 100.305 93.8485 100.218 93.8201C100.131 93.7916 100.057 93.7329 100.011 93.6546C99.1745 92.2689 97.2314 89.0097 97.2314 88.2898C97.2314 88.0189 97.2314 87.6086 113.287 77.2971L124.628 60.3977C124.673 60.3291 124.738 60.2763 124.814 60.2471C124.891 60.2179 124.975 60.2137 125.054 60.2352L138.338 64.0129C138.934 64.1755 151.932 67.6823 154.355 72.7452C154.605 73.2289 154.742 73.7632 154.756 74.3078C154.769 74.8523 154.658 75.3927 154.432 75.8882C151.622 82.2515 143.13 93.8094 143.045 93.9255C143.006 93.9785 142.955 94.0207 142.895 94.0478C142.835 94.075 142.769 94.0862 142.704 94.0803ZM137.386 92.834L142.518 93.283C143.594 91.8121 151.103 81.4232 153.697 75.5708C153.877 75.1763 153.964 74.7459 153.952 74.3125C153.94 73.8791 153.829 73.4542 153.627 73.0703C151.351 68.3171 138.237 64.7871 138.144 64.7561L125.131 61.048L113.899 77.7848C113.868 77.8265 113.832 77.8631 113.79 77.8932C107.922 81.6632 99.0816 87.4228 98.0443 88.3904C98.7659 89.9682 99.5909 91.4965 100.514 92.9656C102.263 92.2689 111.189 88.6924 118.505 85.3868C124.899 82.507 131.564 72.8458 131.665 72.7452C131.717 72.6703 131.793 72.6161 131.881 72.592C131.969 72.568 132.062 72.5756 132.145 72.6136L144.818 78.3964C144.866 78.4179 144.909 78.4489 144.945 78.4875C144.981 78.526 145.008 78.5714 145.027 78.6209C145.048 78.6697 145.059 78.7224 145.059 78.7757C145.059 78.829 145.048 78.8817 145.027 78.9305L137.386 92.834Z" fill="#231F20"/>
<path d="M169.915 50.4584C169.915 50.4584 175.442 50.6055 175.543 50.4584C175.643 50.3113 176.766 41.9429 175.891 42.2836C175.016 42.6242 173.22 47.4161 173.22 47.4161L169.257 47.0445" fill="white"/>
<path d="M173.879 50.9148C173.012 50.9148 171.75 50.9148 169.9 50.8452C169.849 50.8442 169.799 50.8331 169.753 50.8126C169.707 50.7922 169.665 50.7627 169.631 50.7259C169.596 50.6891 169.569 50.6458 169.552 50.5985C169.534 50.5512 169.526 50.5008 169.528 50.4504C169.534 50.349 169.578 50.2536 169.651 50.1832C169.724 50.1129 169.821 50.0728 169.923 50.071C172.075 50.133 174.49 50.1639 175.226 50.1175C175.427 48.9718 176 44.2186 175.814 42.8638C174.903 44.3436 174.153 45.9163 173.577 47.5551C173.547 47.6337 173.492 47.7004 173.421 47.745C173.349 47.7897 173.266 47.81 173.182 47.8028L169.226 47.4312C169.124 47.4214 169.03 47.3723 168.963 47.2943C168.897 47.2163 168.863 47.1155 168.87 47.0132C168.883 46.9113 168.935 46.8182 169.013 46.7522C169.092 46.6863 169.193 46.6523 169.296 46.6571L172.965 47.0055C173.499 45.6198 174.862 42.2987 175.744 41.9271C175.849 41.8835 175.965 41.8758 176.074 41.9053C176.183 41.9347 176.28 41.9996 176.348 42.0897C177.045 42.9722 176.085 50.3807 175.86 50.6904C175.76 50.822 175.69 50.9148 173.879 50.9148Z" fill="#231F20"/>
<path d="M140.978 43.4288C138.508 42.3373 136.163 44.7603 134.785 46.5253C131.154 51.0463 128.235 56.2562 125.054 61.1255C125.054 61.1255 131.905 73.024 141.396 67.0399L151.893 51.1314H168.862C168.862 51.1314 168.916 49.8773 168.862 46.7343C168.862 46.6724 141.837 43.8004 140.978 43.4288Z" fill="white"/>
<path d="M136.031 69.0528C135.282 69.0543 134.536 68.9633 133.809 68.7818C128.313 67.4193 124.86 61.5204 124.713 61.265C124.677 61.204 124.658 61.1345 124.658 61.0637C124.658 60.9929 124.677 60.9233 124.713 60.8624C125.65 59.4303 126.579 57.9439 127.477 56.504C129.596 52.9437 131.923 49.511 134.444 46.2235C135.342 45.1088 138.052 41.7181 141.086 43.0573C141.744 43.2818 150.43 44.2959 166.896 46.0842C169.218 46.3319 169.218 46.3319 169.218 46.657C169.265 49.7536 169.218 51.0386 169.218 51.0928C169.214 51.1928 169.172 51.2873 169.1 51.3566C169.028 51.4258 168.931 51.4645 168.831 51.4644H152.102L141.713 67.2026C141.687 67.2498 141.646 67.2876 141.597 67.311C139.947 68.4135 138.015 69.0181 136.031 69.0528ZM125.511 61.0792C126.161 62.1165 129.381 66.8852 134.026 68.0464C135.24 68.3292 136.499 68.3569 137.723 68.1277C138.948 67.8985 140.112 67.4174 141.141 66.7149L151.591 50.8838C151.627 50.8303 151.676 50.7861 151.732 50.7551C151.789 50.7241 151.852 50.7072 151.916 50.7058H168.514C168.514 50.1639 168.514 48.9949 168.514 47.0441L166.88 46.8661C149.416 44.9694 141.388 44.025 140.854 43.7695C139.174 42.9954 137.301 43.9863 135.118 46.7112C132.6 49.9746 130.274 53.3813 128.151 56.9143C127.291 58.2923 126.401 59.6857 125.511 61.0792Z" fill="#231F20"/>
<path d="M143.556 43.2588C140.629 42.5775 141.713 37.4915 142.487 35.4323C142.639 34.9745 142.876 34.5491 143.184 34.1782C143.52 33.858 143.92 33.613 144.358 33.4595C144.795 33.306 145.261 33.2475 145.723 33.2879C146.643 33.3739 147.556 33.5213 148.456 33.7292C150.512 34.0762 152.622 33.8924 154.587 33.195C155.253 32.955 156.019 32.6763 156.615 33.0479C156.797 33.1817 156.947 33.3535 157.055 33.5514C157.164 33.7493 157.228 33.9685 157.242 34.1936C157.277 34.7275 157.175 35.2613 156.946 35.7448C156.717 36.2283 156.369 36.6456 155.934 36.9573C155.037 37.526 154.007 37.8515 152.946 37.9017C153.085 38.7301 153.225 38.9933 152.729 39.6745C152.236 40.2873 151.642 40.811 150.972 41.2228C150.253 41.6331 149.505 41.9901 148.735 42.2911C147.117 43.0033 145.537 43.6303 143.703 43.2897L143.556 43.2588Z" fill="white"/>
<path d="M144.756 43.7693C144.379 43.7693 144.004 43.7356 143.633 43.6686H143.471C143.103 43.5912 142.758 43.432 142.46 43.2028C142.163 42.9736 141.921 42.6804 141.752 42.3449C140.699 40.394 141.535 36.9259 142.124 35.3776C142.293 34.8715 142.556 34.4015 142.898 33.9919C143.272 33.6326 143.718 33.3565 144.206 33.1818C144.694 33.007 145.214 32.9375 145.731 32.9778C146.386 33.0173 147.036 33.1131 147.674 33.2643L148.518 33.4268C150.509 33.7601 152.552 33.5817 154.456 32.9082C155.23 32.645 156.073 32.3353 156.778 32.7998C157.005 32.9645 157.192 33.1778 157.326 33.4243C157.46 33.6708 157.537 33.9441 157.552 34.2242C157.593 34.8216 157.481 35.4196 157.227 35.9615C156.972 36.5034 156.583 36.9713 156.097 37.3207C155.272 37.8767 154.317 38.2076 153.325 38.2806C153.408 38.5667 153.419 38.8685 153.359 39.1599C153.298 39.4514 153.167 39.7235 152.977 39.9528C152.452 40.6028 151.821 41.1602 151.111 41.6017C150.536 41.9421 149.936 42.2372 149.315 42.4842L148.82 42.701C147.553 43.3327 146.169 43.6964 144.756 43.7693ZM145.53 33.7055C145.146 33.6832 144.761 33.7404 144.4 33.8736C144.039 34.0068 143.709 34.2131 143.432 34.4796C143.155 34.8131 142.944 35.1969 142.813 35.6099C142.178 37.3052 141.543 40.394 142.395 41.981C142.512 42.218 142.682 42.4253 142.891 42.5875C143.1 42.7497 143.343 42.8626 143.602 42.9177H143.726C145.414 43.2351 146.823 42.6932 148.533 41.95L149.037 41.7333C149.619 41.5058 150.181 41.2286 150.716 40.905C151.348 40.5213 151.908 40.0315 152.373 39.4573C152.698 39.0006 152.675 38.8612 152.574 38.2806L152.52 37.9787C152.504 37.8754 152.529 37.7698 152.59 37.6846C152.62 37.6442 152.659 37.6104 152.703 37.5852C152.747 37.5599 152.795 37.5437 152.845 37.5375H153.016C153.954 37.4898 154.864 37.199 155.655 36.6937C156.038 36.4245 156.344 36.0618 156.546 35.6403C156.748 35.2188 156.839 34.7526 156.809 34.2861C156.799 34.1183 156.753 33.9545 156.676 33.8052C156.599 33.6559 156.491 33.5244 156.36 33.4191C155.934 33.1559 155.284 33.4191 154.703 33.5894C152.689 34.305 150.525 34.4942 148.417 34.139C148.123 34.0926 147.837 34.0306 147.542 33.9765C146.948 33.8307 146.342 33.74 145.731 33.7055H145.53Z" fill="#231F20"/>
<path d="M151.42 41.8027C151.42 41.8027 151.629 44.2413 151.18 44.4812C150.731 44.7212 150.05 44.0245 150.05 44.0245" fill="white"/>
<path d="M150.972 44.9153C150.513 44.8579 150.091 44.6382 149.78 44.296C149.717 44.2215 149.684 44.126 149.689 44.0286C149.693 43.9312 149.734 43.8391 149.804 43.7706C149.873 43.7021 149.966 43.6624 150.063 43.6594C150.161 43.6563 150.256 43.6901 150.329 43.7541C150.577 44.0018 150.918 44.1799 151.003 44.1412C151.104 43.3703 151.104 42.5896 151.003 41.8188C150.996 41.7165 151.03 41.6157 151.096 41.5377C151.163 41.4597 151.257 41.4106 151.359 41.4007C151.41 41.3965 151.461 41.4024 151.51 41.418C151.558 41.4336 151.603 41.4587 151.642 41.4918C151.681 41.5249 151.713 41.5654 151.736 41.6109C151.759 41.6563 151.773 41.706 151.777 41.7568C151.932 43.5451 151.777 44.567 151.328 44.8069C151.22 44.8715 151.098 44.9087 150.972 44.9153Z" fill="#231F20"/>
<path d="M153.209 37.6621C153.627 38.684 151.954 41.5328 151.482 42.3069C150.822 43.4991 150.135 44.6706 149.423 45.8215C148.974 46.5492 147.008 45.5041 146.791 45.0473L145.467 48.1981C144.534 47.8445 143.743 47.1945 143.214 46.3479C142.038 44.7609 142.224 44.3816 142.224 44.3816L144.229 41.0141C144.701 41.2173 145.221 41.2866 145.73 41.2142C146.239 41.1418 146.719 40.9306 147.116 40.6038C148.288 39.6339 149.261 38.4455 149.98 37.1047C149.98 37.1047 152.798 36.6557 153.209 37.6621Z" fill="white"/>
<path d="M145.467 48.6619H145.382C144.356 48.297 143.483 47.5959 142.905 46.6724C142.03 45.488 141.682 44.6906 141.875 44.3035L143.903 40.9051C143.955 40.8193 144.038 40.7568 144.135 40.7308C144.231 40.7048 144.334 40.7174 144.422 40.7657C144.831 40.9341 145.278 40.9871 145.715 40.9188C146.152 40.8506 146.561 40.6637 146.899 40.3787C148.02 39.4453 148.951 38.3046 149.64 37.0189C149.666 36.9667 149.705 36.9214 149.752 36.8865C149.799 36.8516 149.853 36.828 149.911 36.8177C150.429 36.717 153.061 36.299 153.565 37.5299C153.967 38.513 153.023 40.4174 151.947 42.3295L151.823 42.554C151.165 43.7307 150.468 44.9151 149.756 46.0763C149.655 46.2302 149.513 46.3526 149.346 46.4293C149.179 46.506 148.994 46.5339 148.811 46.5098C148.133 46.4424 147.484 46.1966 146.93 45.7976L145.823 48.4374C145.792 48.5052 145.742 48.5625 145.678 48.6023C145.615 48.6421 145.542 48.6628 145.467 48.6619ZM142.603 44.5745C142.794 45.1744 143.108 45.7281 143.524 46.2002C143.976 46.8417 144.57 47.3713 145.258 47.7484L146.435 44.9538C146.461 44.8861 146.507 44.8275 146.566 44.7849C146.625 44.7424 146.695 44.7177 146.768 44.7138C146.842 44.71 146.916 44.7277 146.98 44.7648C147.045 44.8018 147.097 44.8567 147.132 44.9228C147.618 45.3545 148.227 45.625 148.873 45.697C148.943 45.697 149.059 45.697 149.098 45.6273C149.802 44.4816 150.499 43.3049 151.142 42.136L151.273 41.9115C152.527 39.682 153.061 38.2963 152.821 37.7853C152.581 37.2744 151.273 37.3441 150.197 37.5066C149.472 38.8415 148.491 40.0201 147.31 40.9748C146.898 41.293 146.417 41.5106 145.907 41.6101C145.396 41.7095 144.869 41.6881 144.368 41.5476L142.603 44.5745Z" fill="#231F20"/>
<path d="M149.879 44.977C149.516 44.8632 149.205 44.6239 149.002 44.302C148.8 43.98 148.718 43.5964 148.772 43.2197" fill="white"/>
<path d="M149.88 45.3413H149.787C149.335 45.2041 148.947 44.9107 148.692 44.5136C148.437 44.1165 148.331 43.6416 148.394 43.1737C148.402 43.0711 148.45 42.9759 148.529 42.9091C148.607 42.8423 148.709 42.8094 148.812 42.8176C148.914 42.8259 149.009 42.8745 149.076 42.9529C149.143 43.0313 149.176 43.133 149.168 43.2357C149.117 43.5226 149.172 43.8184 149.323 44.0677C149.474 44.317 149.71 44.5028 149.988 44.5904C150.091 44.6038 150.184 44.6573 150.247 44.7394C150.31 44.8214 150.338 44.9251 150.325 45.0278C150.312 45.1305 150.258 45.2236 150.176 45.2868C150.094 45.3499 149.99 45.3779 149.888 45.3645L149.88 45.3413Z" fill="#231F20"/>
<path d="M148.726 41.3231C148.851 41.0061 148.889 40.6611 148.835 40.3245C148.829 40.0614 148.785 39.8005 148.703 39.5504C148.658 39.4272 148.587 39.3152 148.494 39.2217C148.402 39.1282 148.291 39.0555 148.169 39.0085C148.055 38.9793 147.936 38.9746 147.82 38.9946C147.704 39.0146 147.593 39.0589 147.495 39.1246C147.301 39.2569 147.14 39.4316 147.023 39.6355C146.76 40.0721 146.616 40.5702 146.607 41.0798C146.597 41.5894 146.722 42.0925 146.969 42.5385V42.4302" fill="white"/>
<path d="M146.907 42.8791C146.851 42.8819 146.795 42.8689 146.746 42.8415C146.696 42.8141 146.656 42.7735 146.628 42.7243C146.346 42.2164 146.204 41.6428 146.217 41.0621C146.229 40.4814 146.395 39.9143 146.698 39.4187C146.849 39.1692 147.049 38.9532 147.286 38.784C147.432 38.6905 147.595 38.6284 147.765 38.6018C147.936 38.5751 148.11 38.5844 148.277 38.6291C148.456 38.6922 148.618 38.7945 148.752 38.9285C148.886 39.0624 148.988 39.2246 149.051 39.4033C149.144 39.7042 149.191 40.0173 149.191 40.3322C149.254 40.7413 149.2 41.1599 149.036 41.5399C148.987 41.6302 148.904 41.6978 148.806 41.7282C148.707 41.7585 148.601 41.7493 148.509 41.7024C148.461 41.6717 148.42 41.6311 148.389 41.5833C148.358 41.5355 148.337 41.4817 148.329 41.4253C148.32 41.369 148.323 41.3114 148.338 41.2564C148.353 41.2014 148.38 41.1503 148.417 41.1064C148.509 40.8592 148.533 40.5918 148.486 40.3322C148.484 40.1086 148.448 39.8866 148.378 39.6742C148.357 39.6033 148.32 39.5379 148.271 39.483C148.221 39.4281 148.16 39.385 148.091 39.3568C148.032 39.3427 147.97 39.3416 147.91 39.3536C147.85 39.3656 147.793 39.3905 147.743 39.4265C147.597 39.5253 147.478 39.6581 147.395 39.8136C147.186 40.1607 147.064 40.5527 147.038 40.9569C147.013 41.361 147.085 41.7653 147.248 42.136C147.301 42.1798 147.339 42.2394 147.356 42.3063C147.381 42.4034 147.373 42.5061 147.334 42.5984C147.295 42.6908 147.226 42.7676 147.139 42.8172C147.067 42.853 146.988 42.874 146.907 42.8791Z" fill="#231F20"/>
<path d="M146.792 45.1239C146.311 44.6204 145.986 43.9886 145.855 43.3047C145.855 43.3047 144.934 45.1549 146.203 46.5251L146.792 45.1239Z" fill="#231F20"/>
<path d="M146.203 46.9124C146.15 46.9119 146.097 46.9006 146.048 46.8793C145.998 46.8581 145.954 46.8272 145.917 46.7885C144.485 45.2403 145.468 43.2198 145.507 43.1346C145.545 43.0598 145.606 42.9992 145.681 42.9616C145.757 42.924 145.842 42.9114 145.925 42.9256C146.007 42.9403 146.083 42.9814 146.14 43.0429C146.197 43.1043 146.233 43.1827 146.242 43.2662C146.363 43.8514 146.651 44.3891 147.07 44.8145C147.123 44.8685 147.159 44.9371 147.173 45.0116C147.187 45.0862 147.178 45.1631 147.148 45.2325L146.559 46.6337C146.533 46.6938 146.493 46.7464 146.442 46.787C146.39 46.8275 146.33 46.8546 146.265 46.8659L146.203 46.9124ZM145.925 44.59C145.877 44.9853 145.936 45.3861 146.095 45.7512L146.319 45.2325C146.172 45.0341 146.04 44.8245 145.925 44.6055V44.59Z" fill="#231F20"/>
<path d="M151.35 40.7374C151.517 40.5258 151.584 40.3007 151.5 40.2345C151.416 40.1684 151.213 40.2863 151.046 40.4978C150.879 40.7094 150.812 40.9345 150.896 41.0006C150.98 41.0668 151.183 40.9489 151.35 40.7374Z" fill="#231F20"/>
<path d="M151.738 40.4718L151.111 39.6357L151.738 40.4718Z" fill="white"/>
<path d="M151.738 40.8592C151.677 40.8611 151.616 40.8471 151.562 40.8186C151.508 40.7901 151.462 40.7481 151.429 40.6967L150.802 39.8606C150.772 39.8201 150.75 39.774 150.738 39.7251C150.726 39.6762 150.724 39.6254 150.732 39.5757C150.74 39.526 150.758 39.4783 150.784 39.4355C150.811 39.3927 150.846 39.3556 150.887 39.3264C150.969 39.2648 151.072 39.2384 151.174 39.2529C151.275 39.2674 151.367 39.3217 151.429 39.4039L152.048 40.2399C152.078 40.281 152.1 40.3277 152.112 40.3773C152.124 40.4268 152.126 40.4782 152.118 40.5285C152.11 40.5789 152.092 40.6272 152.066 40.6707C152.039 40.7141 152.004 40.7519 151.963 40.7818C151.898 40.83 151.819 40.8571 151.738 40.8592Z" fill="#231F20"/>
<path d="M99.4758 87.624C99.4758 87.624 93.3215 91.2779 93.3215 91.8585C93.3215 92.4391 92.6402 92.1295 94.7536 96.5653C95.6439 98.4464 99.7468 99.6618 99.3288 98.2452C98.1366 94.1655 98.214 93.7319 98.214 93.7319L103.107 91.7656" fill="#231F20"/>
<path d="M98.6777 99.2516C97.3694 99.2516 95.0935 98.1988 94.3967 96.728C92.6162 92.9734 92.7633 92.4857 92.9026 92.0135C92.9109 91.9622 92.9109 91.9099 92.9026 91.8586C92.9026 91.6187 92.9027 91.0845 99.2428 87.2912C99.3324 87.2401 99.4385 87.226 99.5383 87.252C99.6381 87.2781 99.7238 87.3422 99.777 87.4306C99.8278 87.519 99.8416 87.6239 99.8155 87.7224C99.7894 87.821 99.7255 87.9053 99.6376 87.957C96.9591 89.5517 94.0406 91.4484 93.6768 91.9361C93.6685 92.0363 93.6477 92.1351 93.6149 92.2302C93.5374 92.4857 93.4136 92.9115 95.0702 96.3951C95.527 97.3627 97.0365 98.1988 98.1668 98.4233C98.4193 98.4986 98.6883 98.4986 98.9409 98.4233C98.9409 98.4233 98.9409 98.4233 98.9409 98.3459C98.4117 96.8234 98.0357 95.2518 97.8184 93.6546C97.8297 93.5902 97.8569 93.5296 97.8974 93.4782C97.9379 93.4269 97.9906 93.3864 98.0507 93.3605L102.943 91.4019C103.038 91.3634 103.144 91.3637 103.238 91.4029C103.332 91.442 103.407 91.5168 103.446 91.6109C103.485 91.7065 103.485 91.8135 103.446 91.909C103.407 92.0045 103.332 92.0809 103.237 92.1218L98.5925 93.972C98.8776 95.3757 99.2368 96.7634 99.6686 98.1291C99.7089 98.2279 99.7284 98.3339 99.7258 98.4405C99.7232 98.5472 99.6986 98.6521 99.6535 98.7488C99.6084 98.8454 99.5439 98.9318 99.4639 99.0023C99.3839 99.0729 99.2902 99.1261 99.1886 99.1587C99.0245 99.2174 98.8519 99.2488 98.6777 99.2516Z" fill="#231F20"/>
<path d="M169.915 52.4246C169.915 52.4246 175.442 52.5717 175.543 52.4246C175.643 52.2775 177.254 43.4137 176.379 43.7775C175.504 44.1413 173.693 48.7939 173.693 48.7939L169.257 49.0107" fill="white"/>
<path d="M173.878 52.8814C173.019 52.8814 171.757 52.8814 169.899 52.8118C169.798 52.8077 169.702 52.7641 169.633 52.6903C169.563 52.6165 169.526 52.5183 169.528 52.417C169.527 52.3655 169.536 52.3143 169.556 52.2668C169.575 52.2192 169.605 52.1762 169.642 52.1405C169.679 52.1049 169.723 52.0773 169.771 52.0596C169.82 52.0419 169.871 52.0344 169.922 52.0376C172.09 52.0918 174.513 52.1228 175.241 52.0841C175.761 49.5516 176.1 46.9853 176.255 44.4047C175.365 45.8341 174.626 47.3518 174.049 48.9334C174.022 49.0031 173.975 49.0636 173.915 49.1076C173.855 49.1516 173.783 49.1771 173.708 49.1811L169.28 49.3978C169.229 49.4004 169.178 49.3929 169.13 49.3758C169.082 49.3587 169.038 49.3323 169.001 49.2982C168.924 49.2292 168.879 49.1328 168.874 49.0301C168.868 48.9275 168.904 48.827 168.973 48.7508C169.042 48.6745 169.139 48.6288 169.241 48.6237L173.422 48.4147C173.948 47.0832 175.334 43.7699 176.232 43.4215C176.333 43.3768 176.446 43.3678 176.553 43.3959C176.66 43.4241 176.754 43.4877 176.82 43.5763C177.594 44.5517 175.899 52.595 175.86 52.6492C175.821 52.7034 175.698 52.8814 173.878 52.8814Z" fill="#231F20"/>
<path d="M146.792 51.3789L142.519 61.0401L144.988 63.8734L147.744 61.0401V50.5273L146.792 51.3789Z" fill="#231F20"/>
<path d="M139.809 44.915L171.177 48.2361L170.279 53.895C170.279 53.895 144.732 54.4911 138.454 52.4861" fill="white"/>
<path d="M161.786 54.3672C153.743 54.3672 142.348 54.1272 138.338 52.8576C138.287 52.8424 138.24 52.8173 138.199 52.7837C138.157 52.7502 138.123 52.7089 138.098 52.6622C138.073 52.6154 138.057 52.5642 138.052 52.5114C138.047 52.4586 138.052 52.4053 138.067 52.3544C138.082 52.3036 138.107 52.2563 138.141 52.2152C138.174 52.174 138.216 52.1399 138.262 52.1148C138.309 52.0896 138.36 52.0739 138.413 52.0685C138.466 52.0632 138.519 52.0682 138.57 52.0835C144.376 53.9259 166.973 53.5389 169.946 53.4769L170.72 48.538L139.754 45.2634C139.704 45.2583 139.654 45.2432 139.609 45.2191C139.564 45.1949 139.524 45.1622 139.492 45.1226C139.46 45.0831 139.436 45.0376 139.421 44.9887C139.406 44.9398 139.401 44.8884 139.406 44.8376C139.411 44.7868 139.426 44.7374 139.45 44.6924C139.475 44.6474 139.507 44.6076 139.547 44.5752C139.586 44.5429 139.632 44.5186 139.681 44.5039C139.73 44.4891 139.781 44.4842 139.832 44.4892L171.208 47.8103C171.312 47.8253 171.407 47.8809 171.471 47.9651C171.503 48.0064 171.526 48.0537 171.54 48.1043C171.553 48.1548 171.556 48.2076 171.548 48.2593L170.65 53.9182C170.636 54.0085 170.589 54.0906 170.52 54.1502C170.451 54.2097 170.362 54.2427 170.271 54.2433C169.907 54.2666 166.4 54.3672 161.786 54.3672Z" fill="#231F20"/>
<path d="M78.6367 0.851562H80.5566V13.2377H87.0516V15.0182H78.6367V0.851562Z" fill="#D1D3D4"/>
<path d="M88.088 10.2807C88.0835 9.61518 88.218 8.95602 88.4828 8.34539C88.7376 7.76628 89.1001 7.24087 89.5511 6.79712C90.0024 6.33311 90.5385 5.95995 91.1303 5.69785C91.7392 5.43574 92.3937 5.29631 93.0565 5.28755C93.7194 5.27879 94.3774 5.40087 94.9929 5.6468C95.6085 5.89274 96.1695 6.25769 96.6437 6.72075C97.118 7.18382 97.4963 7.73591 97.7569 8.34539C98.2688 9.58486 98.2688 10.9766 97.7569 12.2161C97.5102 12.7996 97.1466 13.3265 96.6886 13.7643C96.2282 14.2183 95.684 14.5785 95.0862 14.8249C93.818 15.3408 92.3985 15.3408 91.1303 14.8249C90.5561 14.5853 90.0311 14.2415 89.5821 13.8108C89.1241 13.373 88.7605 12.8461 88.5138 12.2625C88.2333 11.6395 88.0882 10.964 88.088 10.2807ZM90.0078 10.2807C90.0041 10.7343 90.0801 11.185 90.2323 11.6122C90.3615 11.9952 90.5704 12.3464 90.8453 12.6427C91.1202 12.9389 91.4548 13.1735 91.8271 13.3308C92.6606 13.6716 93.5946 13.6716 94.4282 13.3308C94.7989 13.1772 95.1317 12.9448 95.4036 12.6496C95.6807 12.3512 95.8917 11.9977 96.0229 11.6122C96.322 10.7524 96.322 9.81678 96.0229 8.95696C95.8917 8.57148 95.6807 8.218 95.4036 7.91961C95.1317 7.62441 94.7989 7.39195 94.4282 7.23838C93.5946 6.89765 92.6606 6.89765 91.8271 7.23838C91.4548 7.39573 91.1202 7.63027 90.8453 7.92652C90.5704 8.22278 90.3615 8.57399 90.2323 8.95696C90.081 9.38177 90.005 9.82976 90.0078 10.2807Z" fill="#D1D3D4"/>
<path d="M100.459 6.70415C100.969 6.23794 101.57 5.88214 102.224 5.65907C102.865 5.43107 103.541 5.31329 104.221 5.31071C104.827 5.29848 105.431 5.38475 106.01 5.56617C106.462 5.71817 106.88 5.95752 107.24 6.27064C107.549 6.54828 107.789 6.89244 107.945 7.27701C108.1 7.65518 108.179 8.06035 108.177 8.46918V13.2998V14.221C108.177 14.221 108.177 14.7706 108.231 14.9951H106.637C106.598 14.5152 106.575 14.0352 106.575 13.563C106.235 14.1196 105.743 14.568 105.158 14.8558C104.559 15.1201 103.909 15.2496 103.254 15.2351C102.829 15.2401 102.406 15.18 102 15.0571C101.616 14.9477 101.258 14.7635 100.947 14.5152C100.648 14.2761 100.405 13.975 100.234 13.6327C100.058 13.2468 99.9704 12.8261 99.979 12.4018C99.9557 11.856 100.099 11.3161 100.389 10.8535C100.673 10.4317 101.056 10.086 101.504 9.84714C102.024 9.56945 102.587 9.37856 103.168 9.28202C103.838 9.16761 104.517 9.11063 105.197 9.11171H106.513V8.74786C106.511 8.5013 106.464 8.25714 106.373 8.02792C106.279 7.78545 106.137 7.56435 105.955 7.37765C105.756 7.17442 105.516 7.01606 105.251 6.91317C104.931 6.79782 104.592 6.7427 104.252 6.7506C103.948 6.74632 103.644 6.7775 103.347 6.84349C103.102 6.90734 102.864 6.99284 102.634 7.09896C102.43 7.19662 102.236 7.31325 102.054 7.44732L101.558 7.82665L100.459 6.70415ZM105.537 10.4664C105.1 10.4671 104.664 10.4904 104.229 10.5361C103.814 10.5727 103.405 10.6638 103.014 10.8071C102.673 10.9203 102.363 11.1111 102.108 11.3644C101.992 11.4873 101.901 11.632 101.841 11.7901C101.782 11.9483 101.754 12.1167 101.76 12.2857C101.741 12.5127 101.782 12.7406 101.878 12.947C101.974 13.1534 102.123 13.331 102.309 13.4623C102.763 13.7223 103.281 13.8459 103.803 13.8184C104.235 13.8325 104.664 13.7478 105.057 13.5707C105.385 13.4223 105.674 13.1997 105.901 12.9205C106.112 12.6576 106.267 12.3548 106.358 12.0302C106.449 11.7157 106.496 11.39 106.497 11.0625V10.4664H105.537Z" fill="#D1D3D4"/>
<path d="M120.293 15.0182H118.489V13.6635H118.45C118.09 14.18 117.595 14.5872 117.018 14.8402C116.434 15.1147 115.797 15.2574 115.152 15.2582C114.47 15.2692 113.793 15.1401 113.163 14.8789C112.574 14.6458 112.045 14.2834 111.615 13.8183C111.194 13.3704 110.865 12.8444 110.647 12.27C110.412 11.6442 110.296 10.9799 110.306 10.3115C110.297 9.64061 110.413 8.97387 110.647 8.34517C110.865 7.77078 111.194 7.24476 111.615 6.7969C112.05 6.34167 112.578 5.98527 113.163 5.75182C113.793 5.49058 114.47 5.36147 115.152 5.37249C115.816 5.36793 116.473 5.51348 117.072 5.79827C117.631 6.05307 118.108 6.45769 118.45 6.96721H118.489V0H120.293V15.0182ZM115.369 13.5861C115.816 13.5927 116.259 13.5057 116.67 13.3306C117.042 13.175 117.377 12.9429 117.653 12.6494C117.927 12.349 118.138 11.9961 118.272 11.612C118.561 10.7505 118.561 9.81822 118.272 8.95674C118.138 8.57267 117.927 8.21979 117.653 7.9194C117.377 7.62583 117.042 7.39372 116.67 7.23816C116.259 7.06309 115.816 6.97607 115.369 6.98269C114.925 6.9741 114.484 7.06123 114.076 7.23816C113.703 7.39162 113.368 7.62402 113.093 7.9194C112.819 8.21979 112.608 8.57267 112.474 8.95674C112.185 9.81822 112.185 10.7505 112.474 11.612C112.608 11.9961 112.819 12.349 113.093 12.6494C113.368 12.9447 113.703 13.1771 114.076 13.3306C114.484 13.5075 114.925 13.5947 115.369 13.5861Z" fill="#D1D3D4"/>
<path d="M122.725 2.15211C122.736 1.80696 122.88 1.47954 123.127 1.23751C123.373 0.995474 123.703 0.857313 124.048 0.851562C124.397 0.855616 124.731 0.99663 124.977 1.24423C125.223 1.49183 125.362 1.8262 125.364 2.17533C125.362 2.52374 125.223 2.8573 124.977 3.10366C124.73 3.35002 124.397 3.48933 124.048 3.49136C123.699 3.48936 123.365 3.3503 123.117 3.10415C122.87 2.858 122.729 2.52444 122.725 2.17533V2.15211ZM123.15 5.55056H124.946V15.0182H123.15V5.55056Z" fill="#D1D3D4"/>
<path d="M127.802 5.55072H129.605V7.0448H129.644C129.893 6.51776 130.306 6.08575 130.821 5.81393C131.416 5.49572 132.082 5.33576 132.756 5.34944C133.203 5.3483 133.648 5.41887 134.072 5.55846C134.481 5.69324 134.856 5.91509 135.172 6.20873C135.511 6.52296 135.775 6.90915 135.946 7.33897C136.145 7.85725 136.243 8.40934 136.232 8.96466V15.0184H134.428V9.42914C134.437 9.0448 134.376 8.66208 134.25 8.2989C134.149 8.00882 133.985 7.74455 133.77 7.52476C133.571 7.34091 133.337 7.19878 133.081 7.10673C132.819 7.02036 132.545 6.97595 132.269 6.97513C131.914 6.97183 131.562 7.03484 131.231 7.16092C130.912 7.28089 130.625 7.47451 130.395 7.72604C130.142 8.0151 129.95 8.35209 129.83 8.71693C129.68 9.17688 129.605 9.65765 129.605 10.1413V15.0184H127.802V5.55072Z" fill="#D1D3D4"/>
<path d="M148.417 14.9408C148.426 15.6145 148.3 16.2832 148.046 16.9071C147.809 17.4902 147.453 18.0175 147.001 18.4554C146.513 18.8922 145.942 19.2242 145.321 19.4308C144.64 19.6723 143.922 19.7928 143.2 19.7869C142.356 19.7978 141.517 19.6697 140.715 19.4076C139.915 19.1212 139.182 18.6732 138.563 18.0915L139.786 16.5433C140.22 17.0265 140.747 17.4186 141.334 17.6967C141.917 17.9607 142.552 18.0928 143.192 18.0838C143.758 18.1037 144.322 18.0062 144.849 17.7974C145.253 17.6215 145.613 17.357 145.901 17.0232C146.158 16.7156 146.345 16.3566 146.451 15.9704C146.558 15.5847 146.613 15.1863 146.614 14.786V13.4622H146.552C146.222 14.0185 145.73 14.4613 145.143 14.7318C144.555 15.0026 143.916 15.1426 143.269 15.1421C142.609 15.1476 141.953 15.0213 141.342 14.7705C140.771 14.5369 140.253 14.1902 139.819 13.7511C139.385 13.3121 139.045 12.7899 138.818 12.2159C138.573 11.6003 138.449 10.9431 138.454 10.2805C138.451 9.61768 138.566 8.95956 138.795 8.33745C139.012 7.76242 139.341 7.23617 139.763 6.78918C140.195 6.32666 140.723 5.96463 141.311 5.72862C141.938 5.46736 142.613 5.33823 143.293 5.34929C143.94 5.34998 144.58 5.49268 145.166 5.76732C145.74 6.02048 146.233 6.42777 146.59 6.94401H146.637V5.55056H148.417V14.9408ZM143.502 6.98271C143.055 6.97609 142.612 7.06311 142.201 7.23818C141.829 7.39553 141.494 7.63007 141.219 7.92633C140.944 8.22258 140.735 8.57379 140.606 8.95676C140.455 9.38157 140.379 9.82956 140.382 10.2805C140.361 10.7043 140.424 11.1281 140.569 11.527C140.714 11.9258 140.937 12.2917 141.226 12.6029C141.852 13.1612 142.662 13.4696 143.502 13.4696C144.341 13.4696 145.151 13.1612 145.778 12.6029C146.065 12.2907 146.287 11.9247 146.432 11.5261C146.576 11.1275 146.641 10.7042 146.621 10.2805C146.624 9.82956 146.548 9.38157 146.397 8.95676C146.266 8.57128 146.055 8.2178 145.778 7.91941C145.506 7.62421 145.173 7.39175 144.802 7.23818C144.389 7.06205 143.943 6.975 143.494 6.98271H143.502Z" fill="#D1D3D4"/>
<path d="M152.543 15.1417C152.21 15.1163 151.9 14.9661 151.673 14.7214C151.446 14.4767 151.32 14.1554 151.32 13.8218C151.32 13.4883 151.446 13.167 151.673 12.9223C151.9 12.6776 152.21 12.5274 152.543 12.502C152.876 12.5274 153.186 12.6776 153.413 12.9223C153.64 13.167 153.766 13.4883 153.766 13.8218C153.766 14.1554 153.64 14.4767 153.413 14.7214C153.186 14.9661 152.876 15.1163 152.543 15.1417Z" fill="#D1D3D4"/>
<path d="M158.102 15.1417C157.769 15.1163 157.458 14.9661 157.232 14.7214C157.005 14.4767 156.879 14.1554 156.879 13.8218C156.879 13.4883 157.005 13.167 157.232 12.9223C157.458 12.6776 157.769 12.5274 158.102 12.502C158.434 12.5274 158.745 12.6776 158.972 12.9223C159.198 13.167 159.324 13.4883 159.324 13.8218C159.324 14.1554 159.198 14.4767 158.972 14.7214C158.745 14.9661 158.434 15.1163 158.102 15.1417Z" fill="#D1D3D4"/>
<path d="M163.659 15.1417C163.327 15.1163 163.016 14.9661 162.789 14.7214C162.562 14.4767 162.437 14.1554 162.437 13.8218C162.437 13.4883 162.562 13.167 162.789 12.9223C163.016 12.6776 163.327 12.5274 163.659 12.502C163.992 12.5274 164.302 12.6776 164.529 12.9223C164.756 13.167 164.882 13.4883 164.882 13.8218C164.882 14.1554 164.756 14.4767 164.529 14.7214C164.302 14.9661 163.992 15.1163 163.659 15.1417Z" fill="#D1D3D4"/>
</svg>
