<svg width="296" height="20" viewBox="0 0 296 20" fill="none" xmlns="http://www.w3.org/2000/svg">
<g clip-path="url(#clip0_153_10637)">
<path d="M72.1675 18.8887C72.1675 18.5367 72.4067 18.2475 72.7977 18.2475C73.1713 18.2475 73.4235 18.5243 73.4235 18.8887C73.4235 19.2531 73.1713 19.5298 72.7977 19.5298C72.4067 19.5298 72.1675 19.2407 72.1675 18.8887ZM73.8494 18.8887V17.887H73.3977V18.131C73.2544 17.9507 73.0371 17.8376 72.7415 17.8376C72.1593 17.8376 71.7023 18.2778 71.7023 18.8892C71.7023 19.5005 72.159 19.9407 72.7415 19.9407C73.0369 19.9407 73.2544 19.8275 73.3977 19.6473V19.8905H73.8489V18.8887H73.8494ZM89.1131 18.8887C89.1131 18.5367 89.3523 18.2475 89.7434 18.2475C90.1175 18.2475 90.3692 18.5243 90.3692 18.8887C90.3692 19.2531 90.1175 19.5298 89.7434 19.5298C89.3525 19.5298 89.1131 19.2407 89.1131 18.8887ZM90.7955 18.8887V17.083H90.3434V18.131C90.2001 17.9507 89.9828 17.8376 89.6872 17.8376C89.105 17.8376 88.6481 18.2778 88.6481 18.8892C88.6481 19.5005 89.1048 19.9407 89.6872 19.9407C89.9828 19.9407 90.2001 19.8275 90.3434 19.6473V19.8905H90.7955V18.8887ZM79.4561 18.2269C79.7472 18.2269 79.9341 18.4029 79.9819 18.7126H78.904C78.9522 18.4235 79.1343 18.2269 79.4562 18.2269H79.4561ZM79.4652 17.8365C78.8564 17.8365 78.4305 18.2635 78.4305 18.8881C78.4305 19.5248 78.8735 19.9396 79.4954 19.9396C79.8083 19.9396 80.0949 19.8644 80.347 19.659L80.1257 19.3363C79.9515 19.4705 79.7297 19.5458 79.5213 19.5458C79.2301 19.5458 78.9651 19.4159 78.8999 19.0553H80.4425C80.4469 19.0012 80.4515 18.9465 80.4515 18.888C80.4469 18.2637 80.0464 17.8364 79.4649 17.8364L79.4652 17.8365ZM84.919 18.888C84.919 18.536 85.1582 18.2468 85.5492 18.2468C85.9228 18.2468 86.175 18.5235 86.175 18.888C86.175 19.2524 85.9228 19.5291 85.5492 19.5291C85.1582 19.5291 84.9189 19.2399 84.9189 18.888H84.919ZM86.6008 18.888V17.887H86.1493V18.131C86.0055 17.9507 85.7887 17.8376 85.4931 17.8376C84.9109 17.8376 84.4539 18.2778 84.4539 18.8892C84.4539 19.5005 84.9106 19.9407 85.4931 19.9407C85.7887 19.9407 86.0055 19.8275 86.1493 19.6473V19.8905H86.6009V18.8887L86.6008 18.888ZM82.3679 18.888C82.3679 19.4954 82.8066 19.9395 83.4762 19.9395C83.7891 19.9395 83.9975 19.8724 84.223 19.7008L84.006 19.3488C83.8364 19.4663 83.6583 19.5291 83.4617 19.5291C83.1011 19.5248 82.836 19.2735 82.836 18.888C82.836 18.5024 83.1011 18.2512 83.4617 18.2468C83.6578 18.2468 83.8359 18.3097 84.006 18.4271L84.223 18.0752C83.9971 17.9035 83.7887 17.8364 83.4762 17.8364C82.8066 17.8364 82.3679 18.2804 82.3679 18.888ZM88.1915 17.8364C87.9309 17.8364 87.7612 17.9539 87.6438 18.1298V17.887H87.1962V19.8894H87.6484V18.7669C87.6484 18.4356 87.7961 18.2515 88.0914 18.2515C88.1881 18.2501 88.2841 18.2672 88.3739 18.3018L88.5131 17.8914C88.4132 17.8535 88.2828 17.8368 88.1913 17.8368L88.1915 17.8364ZM76.0828 18.0462C75.8655 17.9081 75.566 17.8368 75.2356 17.8368C74.7093 17.8368 74.3705 18.0799 74.3705 18.4778C74.3705 18.8043 74.6228 19.0057 75.0873 19.0685L75.3007 19.0978C75.5484 19.1314 75.6653 19.1942 75.6653 19.3073C75.6653 19.4621 75.5008 19.5504 75.1918 19.5504C74.8789 19.5504 74.6531 19.4541 74.5009 19.341L74.2886 19.6805C74.5363 19.8564 74.8492 19.9404 75.188 19.9404C75.788 19.9404 76.1357 19.6681 76.1357 19.2868C76.1357 18.9348 75.862 18.7507 75.4099 18.6879L75.197 18.6581C75.0015 18.6337 74.8448 18.5958 74.8448 18.4615C74.8448 18.3151 74.9925 18.2271 75.2403 18.2271C75.5055 18.2271 75.7622 18.3234 75.888 18.3987L76.0835 18.0467L76.0828 18.0462ZM81.9116 17.8371C81.651 17.8371 81.4813 17.9546 81.3644 18.1305V17.887H80.9167V19.8894H81.3685V18.7669C81.3685 18.4356 81.5162 18.2515 81.8115 18.2515C81.9082 18.2501 82.0042 18.2672 82.094 18.3018L82.2332 17.8914C82.1332 17.8535 82.0029 17.8368 81.9113 17.8368L81.9116 17.8371ZM78.0567 17.887H77.318V17.2796H76.8613V17.887H76.44V18.285H76.8613V19.1985C76.8613 19.6631 77.0484 19.9398 77.5828 19.9398C77.7789 19.9398 78.0047 19.8812 78.1479 19.7849L78.0175 19.4121C77.8827 19.4874 77.7349 19.5253 77.6175 19.5253C77.3917 19.5253 77.318 19.3911 77.318 19.1902V18.2854H78.0567V17.887ZM71.3029 19.8899V18.6332C71.3029 18.1599 70.99 17.8415 70.4856 17.8372C70.2204 17.833 69.9469 17.9125 69.7554 18.1935C69.6121 17.9715 69.3863 17.8372 69.0689 17.8372C68.847 17.8372 68.6302 17.9001 68.4604 18.1346V17.887H68.0083V19.8894H68.464V18.7791C68.464 18.4315 68.6639 18.2468 68.9728 18.2468C69.2728 18.2468 69.4245 18.4353 69.4245 18.7747V19.8891H69.8812V18.7789C69.8812 18.4313 70.0897 18.2466 70.3895 18.2466C70.698 18.2466 70.8452 18.4351 70.8452 18.7745V19.8889L71.3029 19.8899Z" fill="#231F20"/>
<path d="M82.5913 14.167H75.9248V1.66699H82.5915L82.5913 14.167Z" fill="#FF5F00"/>
<path d="M76.6257 7.91667C76.6257 5.39159 77.8181 3.14224 79.6748 1.69266C78.2694 0.593783 76.5311 -0.00261366 74.7412 8.61048e-06C70.3323 8.61048e-06 66.7583 3.54436 66.7583 7.91667C66.7583 12.289 70.3323 15.8333 74.7412 15.8333C76.5311 15.836 78.2695 15.2396 79.675 14.1407C77.8184 12.6914 76.6257 10.4419 76.6257 7.91667Z" fill="#EB001B"/>
<path d="M92.175 7.91667C92.175 12.289 88.6012 15.8333 84.1924 15.8333C82.4025 15.8359 80.664 15.2395 79.2583 14.1407C81.1155 12.6911 82.3078 10.4419 82.3078 7.91667C82.3078 5.39146 81.1155 3.14224 79.2583 1.69266C80.6639 0.593816 82.4024 -0.0025677 84.1923 8.31014e-06C88.601 8.31014e-06 92.1748 3.54436 92.1748 7.91667" fill="#F79E1B"/>
</g>
<g clip-path="url(#clip1_153_10637)">
<path d="M121.404 8.55756C121.39 9.67194 122.397 10.2938 123.156 10.6636C123.936 11.043 124.198 11.2862 124.195 11.6254C124.189 12.1447 123.573 12.3738 122.996 12.3827C121.99 12.3984 121.406 12.1112 120.941 11.894L120.578 13.5894C121.045 13.8044 121.909 13.9918 122.804 14C124.906 14 126.282 12.9622 126.289 11.3532C126.298 9.31114 123.465 9.19807 123.484 8.28529C123.491 8.00856 123.755 7.71322 124.334 7.63809C124.62 7.60015 125.411 7.57114 126.307 7.98401L126.659 6.34369C126.177 6.16812 125.557 6 124.786 6C122.807 6 121.415 7.05189 121.404 8.55756ZM130.04 6.14134C129.656 6.14134 129.333 6.36526 129.188 6.70895L126.185 13.8795H128.286L128.704 12.7242L131.271 12.7242L131.514 13.8795H133.365L131.75 6.14134H130.04ZM130.334 8.23173L130.94 11.1374H129.28L130.334 8.23173ZM118.857 6.14134L117.201 13.8795H119.203L120.858 6.14134L118.857 6.14134ZM115.895 6.14134L113.812 11.4082L112.969 6.92989C112.87 6.42998 112.479 6.14134 112.046 6.14134H108.639L108.592 6.366C109.291 6.51776 110.086 6.76251 110.567 7.02436C110.861 7.1843 110.946 7.32416 111.042 7.7043L112.639 13.8795H114.754L117.998 6.14134H115.895Z" fill="#1B2073"/>
<path d="M108.592 0H134.082V2.66667H108.592V0Z" fill="#1B2073"/>
<path d="M108.592 17.333H134.082V19.9997H108.592V17.333Z" fill="#F7B802"/>
</g>
<g clip-path="url(#clip2_153_10637)">
<path d="M152.442 0H180.442C181.325 0 182.042 0.71636 182.042 1.6V18.4C182.042 19.2837 181.325 20 180.442 20H152.442C151.558 20 150.842 19.2837 150.842 18.4V1.6C150.842 0.71636 151.558 0 152.442 0Z" fill="#2557D6"/>
<path d="M150.852 9.4277H152.349L152.687 8.6473H153.443L153.78 9.4277H156.727V8.8311L156.99 9.4303H158.519L158.782 8.82222V9.42774H166.106L166.102 8.1467H166.244C166.343 8.15002 166.372 8.15878 166.372 8.31574V9.42774H170.16V9.12954C170.465 9.28634 170.94 9.42774 171.566 9.42774H173.159L173.5 8.64734H174.256L174.589 9.42774H177.66V8.68646L178.125 9.42774H180.586V4.52734H178.15V5.10606L177.81 4.52734H175.311V5.10606L174.998 4.52734H171.622C171.058 4.52734 170.561 4.6029 170.16 4.81346V4.52734H167.831V4.81346C167.575 4.59642 167.227 4.52734 166.841 4.52734H158.331L157.76 5.79298L157.174 4.52734H154.493V5.10606L154.199 4.52734H151.913L150.852 6.85718V9.42762H150.852L150.852 9.4277ZM160.305 8.7209H159.407L159.403 5.96914L158.132 8.72086H157.363L156.089 5.9667V8.72086H154.306L153.969 7.93718H152.144L151.804 8.72086H150.852L152.421 5.20738H153.724L155.214 8.53394V5.20738H156.645L157.792 7.59086L158.846 5.20738H160.305L160.305 8.7209ZM153.669 7.20798L153.069 5.8073L152.473 7.20798H153.669ZM163.881 8.72082H160.953V5.20734H163.881V5.93898H161.83V6.5723H163.832V7.2925H161.83V7.99418H163.881L163.881 8.72082ZM168.008 6.15362C168.008 6.71378 167.618 7.00322 167.39 7.0901C167.582 7.16002 167.746 7.28362 167.824 7.38598C167.948 7.56074 167.969 7.71682 167.969 8.03062V8.72082H167.085L167.081 8.27774C167.081 8.06634 167.103 7.7623 166.943 7.59326C166.815 7.46966 166.62 7.44286 166.304 7.44286H165.363V8.72086H164.487V5.20734H166.503C166.951 5.20734 167.281 5.21866 167.564 5.37562C167.841 5.53258 168.008 5.7617 168.008 6.15362ZM166.9 6.6753C166.779 6.74538 166.637 6.7477 166.466 6.7477H165.401V5.9673H166.481C166.633 5.9673 166.793 5.97386 166.896 6.03066C167.01 6.08186 167.08 6.19078 167.08 6.34126C167.08 6.49486 167.013 6.61842 166.9 6.6753ZM169.414 8.72082H168.519V5.20734H169.414V8.72082ZM179.796 8.72082H178.554L176.892 6.08374V8.72082H175.107L174.766 7.93714H172.945L172.615 8.72082H171.589C171.163 8.72082 170.623 8.63054 170.318 8.33222C170.01 8.0339 169.849 7.62982 169.849 6.9909C169.849 6.46982 169.945 5.99346 170.322 5.61702C170.605 5.33662 171.049 5.20734 171.653 5.20734H172.502V5.96018H171.671C171.351 5.96018 171.17 6.00578 170.996 6.1683C170.847 6.31626 170.744 6.5959 170.744 6.96418C170.744 7.34058 170.822 7.61202 170.985 7.7893C171.12 7.92834 171.366 7.9705 171.596 7.9705H171.99L173.225 5.20746H174.539L176.023 8.5307V5.2075H177.357L178.898 7.65446V5.2075H179.796V8.72082ZM174.468 7.20802L173.861 5.80734L173.258 7.20802H174.468ZM182.03 14.3312C181.817 14.6295 181.402 14.7807 180.84 14.7807H179.147V14.0271H180.833C181 14.0271 181.117 14.0061 181.188 13.9401C181.255 13.8812 181.292 13.798 181.292 13.711C181.292 13.6085 181.249 13.5273 181.185 13.4785C181.121 13.4249 181.028 13.4005 180.876 13.4005C180.053 13.3737 179.026 13.4249 179.026 12.3128C179.026 11.8031 179.364 11.2665 180.283 11.2665H182.029V10.5674H180.407C179.918 10.5674 179.562 10.6798 179.31 10.8543V10.5673H176.911C176.527 10.5673 176.077 10.6585 175.864 10.8543V10.5673H171.579V10.8543C171.238 10.6187 170.662 10.5673 170.397 10.5673H167.571V10.8543C167.301 10.604 166.701 10.5673 166.335 10.5673H163.172L162.448 11.3179L161.77 10.5673H157.045V15.4709H161.681L162.427 14.7085L163.13 15.4709L165.987 15.4734V14.3199H166.268C166.647 14.3255 167.094 14.3107 167.489 14.1474V15.4708H169.846V14.1927H169.96C170.105 14.1927 170.119 14.1985 170.119 14.3373V15.4706H177.28C177.734 15.4706 178.209 15.3592 178.473 15.1568V15.4706H180.744C181.216 15.4706 181.678 15.4071 182.029 15.2447L182.029 14.3311L182.03 14.3312ZM167.832 12.445C167.832 13.4213 167.072 13.6228 166.306 13.6228H165.212V14.8016H163.508L162.429 13.6381L161.307 14.8016H157.835V11.2872H161.361L162.439 12.4392L163.554 11.2872H166.355C167.05 11.2872 167.832 11.4717 167.832 12.445ZM160.863 14.0624H158.708V13.3632H160.632V12.6461H158.708V12.0072H160.906L161.864 13.0313L160.863 14.0624ZM164.336 14.4648L162.99 13.0332L164.336 11.6472V14.4648ZM166.326 12.9021H165.193V12.0072H166.336C166.652 12.0072 166.872 12.1308 166.872 12.4381C166.872 12.742 166.663 12.9021 166.326 12.9021ZM172.26 11.2872H175.186V12.014H173.133V12.6529H175.136V13.37H173.133V14.0692L175.186 14.0724V14.8016H172.26L172.26 11.2872ZM171.135 13.1684C171.331 13.2374 171.49 13.361 171.565 13.4634C171.689 13.635 171.707 13.7951 171.71 14.1049V14.8016H170.83V14.3619C170.83 14.1505 170.851 13.8374 170.688 13.674C170.56 13.5481 170.365 13.518 170.045 13.518H169.108V14.8016H168.228V11.2873H170.251C170.695 11.2873 171.018 11.3061 171.306 11.4531C171.583 11.6133 171.757 11.8326 171.757 12.2335C171.757 12.7944 171.366 13.0807 171.135 13.1684ZM170.64 12.7241C170.523 12.7908 170.378 12.7965 170.207 12.7965H169.142V12.0073H170.222C170.378 12.0073 170.534 12.0105 170.64 12.0707C170.754 12.1277 170.822 12.2366 170.822 12.3869C170.822 12.5372 170.754 12.6583 170.64 12.7241ZM178.553 12.948C178.724 13.1171 178.815 13.3308 178.815 13.6925C178.815 14.4485 178.322 14.8014 177.438 14.8014H175.731V14.0478H177.431C177.598 14.0478 177.715 14.0268 177.789 13.9608C177.85 13.9065 177.893 13.8275 177.893 13.7317C177.893 13.6292 177.846 13.548 177.786 13.4992C177.719 13.4456 177.626 13.4213 177.474 13.4213C176.654 13.3945 175.627 13.4456 175.627 12.3336C175.627 11.8238 175.962 11.2873 176.881 11.2873H178.638V12.0353H177.03C176.871 12.0353 176.767 12.0411 176.679 12.0987C176.583 12.1556 176.547 12.2401 176.547 12.3515C176.547 12.4841 176.629 12.5743 176.739 12.6133C176.831 12.6441 176.931 12.6531 177.08 12.6531L177.552 12.6654C178.028 12.6764 178.354 12.7553 178.553 12.948ZM182.031 12.0072H180.434C180.274 12.0072 180.168 12.0129 180.079 12.0707C179.986 12.1276 179.951 12.212 179.951 12.3235C179.951 12.4561 180.029 12.5463 180.142 12.5853C180.235 12.6161 180.334 12.6251 180.48 12.6251L180.955 12.6373C181.435 12.6487 181.755 12.7276 181.95 12.9202C181.985 12.947 182.007 12.9771 182.031 13.0072V12.0072H182.031Z" fill="white"/>
</g>
<path d="M204.777 6.77445C204.441 6.54349 204.002 6.42773 203.462 6.42773H201.368C201.202 6.42773 201.11 6.51065 201.093 6.67633L200.242 12.0155C200.234 12.068 200.247 12.1159 200.282 12.1595C200.316 12.2032 200.36 12.2249 200.412 12.2249H201.407C201.581 12.2249 201.677 12.1422 201.695 11.9763L201.93 10.5369C201.939 10.4671 201.97 10.4104 202.022 10.3667C202.074 10.3231 202.14 10.2946 202.218 10.2816C202.297 10.2686 202.371 10.2621 202.441 10.2621C202.511 10.2621 202.593 10.2665 202.69 10.2752C202.785 10.2839 202.847 10.2881 202.873 10.2881C203.623 10.2881 204.212 10.0767 204.639 9.65345C205.067 9.23041 205.281 8.64377 205.281 7.89329C205.281 7.37857 205.113 7.00565 204.777 6.77433V6.77445ZM203.697 8.37765C203.653 8.68305 203.54 8.88361 203.357 8.97961C203.174 9.07573 202.912 9.12357 202.572 9.12357L202.14 9.13661L202.362 7.73633C202.38 7.64045 202.437 7.59245 202.533 7.59245H202.781C203.13 7.59245 203.383 7.64273 203.54 7.74289C203.697 7.84329 203.75 8.05493 203.697 8.37765Z" fill="#003087"/>
<path d="M226.873 6.42676H225.905C225.809 6.42676 225.752 6.47476 225.735 6.5708L224.884 12.0148L224.871 12.041C224.871 12.0848 224.889 12.126 224.924 12.1653C224.958 12.2045 225.002 12.2242 225.054 12.2242H225.918C226.084 12.2242 226.175 12.1414 226.193 11.9756L227.044 6.62316V6.61016C227.044 6.48796 226.987 6.42692 226.873 6.42692V6.42676Z" fill="#009CDE"/>
<path d="M215.174 8.53476C215.174 8.49124 215.157 8.44972 215.122 8.41056C215.087 8.37132 215.048 8.35156 215.004 8.35156H213.996C213.9 8.35156 213.822 8.3954 213.761 8.4824L212.374 10.524L211.798 8.561C211.754 8.42152 211.658 8.35156 211.51 8.35156H210.528C210.485 8.35156 210.445 8.37124 210.411 8.41056C210.376 8.44972 210.358 8.49132 210.358 8.53476C210.358 8.55232 210.443 8.8096 210.614 9.30688C210.784 9.80432 210.967 10.3409 211.163 10.9167C211.359 11.4924 211.462 11.798 211.471 11.8326C210.755 12.8098 210.398 13.3333 210.398 13.403C210.398 13.5165 210.454 13.5731 210.568 13.5731H211.575C211.671 13.5731 211.75 13.5296 211.811 13.4423L215.148 8.62632C215.165 8.60904 215.174 8.57864 215.174 8.53472V8.53476Z" fill="#003087"/>
<path d="M224.557 8.35137H223.563C223.44 8.35137 223.366 8.49537 223.34 8.78333C223.113 8.43445 222.699 8.25977 222.097 8.25977C221.469 8.25977 220.934 8.49537 220.494 8.96649C220.053 9.43761 219.833 9.99177 219.833 10.6286C219.833 11.1434 219.983 11.5534 220.284 11.8586C220.585 12.1642 220.989 12.3167 221.495 12.3167C221.748 12.3167 222.005 12.2642 222.267 12.1596C222.529 12.055 222.734 11.9154 222.882 11.7409C222.882 11.7496 222.873 11.7888 222.856 11.8585C222.838 11.9284 222.83 11.981 222.83 12.0156C222.83 12.1553 222.886 12.2249 223 12.2249H223.903C224.069 12.2249 224.165 12.1422 224.191 11.9763L224.727 8.56073C224.736 8.50833 224.723 8.46045 224.688 8.41677C224.653 8.37325 224.61 8.35137 224.557 8.35137ZM222.849 10.9295C222.627 11.1476 222.359 11.2566 222.045 11.2566C221.791 11.2566 221.587 11.187 221.43 11.0473C221.272 10.908 221.194 10.716 221.194 10.4715C221.194 10.1489 221.303 9.87605 221.521 9.65361C221.739 9.43113 222.01 9.31993 222.332 9.31993C222.577 9.31993 222.779 9.39189 222.941 9.53577C223.102 9.67977 223.183 9.87825 223.183 10.1313C223.183 10.4454 223.072 10.7115 222.849 10.9295Z" fill="#009CDE"/>
<path d="M209.691 8.35137H208.696C208.574 8.35137 208.5 8.49537 208.474 8.78333C208.238 8.43445 207.824 8.25977 207.23 8.25977C206.602 8.25977 206.068 8.49537 205.627 8.96649C205.187 9.43761 204.966 9.99177 204.966 10.6286C204.966 11.1434 205.117 11.5534 205.418 11.8586C205.719 12.1642 206.122 12.3167 206.628 12.3167C206.872 12.3167 207.126 12.2642 207.387 12.1596C207.649 12.055 207.858 11.9154 208.015 11.7409C207.98 11.8455 207.963 11.9371 207.963 12.0156C207.963 12.1553 208.02 12.2249 208.133 12.2249H209.036C209.202 12.2249 209.298 12.1422 209.324 11.9763L209.861 8.56073C209.869 8.50833 209.856 8.46045 209.821 8.41677C209.786 8.37325 209.743 8.35137 209.691 8.35137ZM207.983 10.936C207.76 11.15 207.488 11.2566 207.165 11.2566C206.912 11.2566 206.709 11.187 206.556 11.0473C206.404 10.908 206.327 10.716 206.327 10.4715C206.327 10.1489 206.436 9.87605 206.655 9.65361C206.873 9.43113 207.143 9.31989 207.466 9.31989C207.71 9.31989 207.913 9.39189 208.074 9.53577C208.236 9.67977 208.317 9.87825 208.317 10.1313C208.317 10.4541 208.205 10.7225 207.983 10.936Z" fill="#003087"/>
<path d="M219.643 6.77445C219.307 6.54349 218.869 6.42773 218.328 6.42773H216.247C216.073 6.42773 215.977 6.51065 215.959 6.67633L215.109 12.0155C215.1 12.068 215.113 12.1159 215.148 12.1595C215.183 12.2032 215.226 12.2249 215.279 12.2249H216.352C216.456 12.2249 216.526 12.1683 216.561 12.0549L216.797 10.5369C216.805 10.4671 216.836 10.4104 216.888 10.3667C216.941 10.3231 217.006 10.2946 217.085 10.2816C217.163 10.2686 217.237 10.2621 217.307 10.2621C217.377 10.2621 217.46 10.2665 217.556 10.2752C217.652 10.2839 217.713 10.2881 217.739 10.2881C218.489 10.2881 219.078 10.0767 219.506 9.65345C219.933 9.23041 220.147 8.64377 220.147 7.89329C220.147 7.37857 219.979 7.00561 219.643 6.77433V6.77445ZM218.302 8.92721C218.11 9.05805 217.822 9.12345 217.438 9.12345L217.019 9.13657L217.242 7.73625C217.259 7.64041 217.316 7.59233 217.412 7.59233H217.647C217.839 7.59233 217.992 7.60109 218.106 7.61849C218.219 7.63601 218.328 7.69045 218.433 7.78201C218.537 7.87365 218.59 8.00677 218.59 8.18117C218.59 8.54773 218.494 8.79625 218.302 8.92721Z" fill="#009CDE"/>
<defs>
<clipPath id="clip0_153_10637">
<rect width="25.8333" height="20" fill="white" transform="translate(66.7583)"/>
</clipPath>
<clipPath id="clip1_153_10637">
<rect width="26.25" height="20" fill="white" transform="translate(108.592)"/>
</clipPath>
<clipPath id="clip2_153_10637">
<rect width="31.2" height="20" fill="white" transform="translate(150.842)"/>
</clipPath>
</defs>
</svg>
