<svg width="36" height="36" viewBox="0 0 36 36" fill="none" xmlns="http://www.w3.org/2000/svg">
<path d="M18 3.375C15.1075 3.375 12.2799 4.23274 9.87479 5.83976C7.46972 7.44677 5.5952 9.73089 4.48827 12.4033C3.38134 15.0756 3.09171 18.0162 3.65602 20.8532C4.22033 23.6902 5.61323 26.2961 7.65857 28.3414C9.70391 30.3868 12.3098 31.7797 15.1468 32.344C17.9838 32.9083 20.9244 32.6187 23.5968 31.5117C26.2691 30.4048 28.5532 28.5303 30.1602 26.1252C31.7673 23.7201 32.625 20.8926 32.625 18C32.6213 14.1224 31.0792 10.4046 28.3373 7.66268C25.5954 4.92076 21.8777 3.37872 18 3.375ZM18 30.375C15.5525 30.375 13.1599 29.6492 11.1248 28.2894C9.08977 26.9297 7.50363 24.9969 6.567 22.7357C5.63036 20.4745 5.3853 17.9863 5.86279 15.5858C6.34028 13.1852 7.51889 10.9802 9.24956 9.24955C10.9802 7.51888 13.1852 6.34027 15.5858 5.86278C17.9863 5.38529 20.4745 5.63036 22.7357 6.56699C24.997 7.50363 26.9297 9.08976 28.2894 11.1248C29.6492 13.1599 30.375 15.5525 30.375 18C30.3713 21.2809 29.0663 24.4264 26.7463 26.7463C24.4264 29.0663 21.2809 30.3713 18 30.375ZM23.3016 21.6984C23.5128 21.9117 23.6313 22.1998 23.6313 22.5C23.6313 22.8002 23.5128 23.0883 23.3016 23.3016C23.0865 23.5095 22.7991 23.6257 22.5 23.6257C22.2009 23.6257 21.9135 23.5095 21.6984 23.3016L18 19.5891L14.3016 23.3016C14.0865 23.5095 13.7991 23.6257 13.5 23.6257C13.2009 23.6257 12.9135 23.5095 12.6984 23.3016C12.4872 23.0883 12.3687 22.8002 12.3687 22.5C12.3687 22.1998 12.4872 21.9117 12.6984 21.6984L16.4109 18L12.6984 14.3016C12.519 14.083 12.4274 13.8055 12.4412 13.523C12.4551 13.2406 12.5735 12.9734 12.7735 12.7735C12.9734 12.5735 13.2406 12.4551 13.5231 12.4412C13.8055 12.4274 14.083 12.519 14.3016 12.6984L18 16.4109L21.6984 12.6984C21.917 12.519 22.1945 12.4274 22.477 12.4412C22.7594 12.4551 23.0266 12.5735 23.2265 12.7735C23.4265 12.9734 23.5449 13.2406 23.5588 13.523C23.5726 13.8055 23.481 14.083 23.3016 14.3016L19.5891 18L23.3016 21.6984Z" fill="white"/>
</svg>
